<svg viewBox="0 0 24 24" fill="none" xmlns="http://www.w3.org/2000/svg">
<path fill-rule="evenodd" clip-rule="evenodd" d="M5.01694 13.2399C5.11025 13.1466 5.22295 13.0749 5.34705 13.03C5.52916 12.9534 5.72988 12.9325 5.92386 12.9699C6.11785 13.0073 6.29643 13.1013 6.43705 13.24C6.61978 13.4317 6.72337 13.6853 6.72705 13.95C6.73043 14.0812 6.70303 14.2113 6.64705 14.33C6.59641 14.4512 6.52538 14.5628 6.43705 14.66C6.33985 14.7484 6.22824 14.8194 6.10705 14.87C5.92532 14.9428 5.72624 14.9606 5.53449 14.9212C5.34274 14.8819 5.16675 14.7872 5.02833 14.6487C4.88992 14.5103 4.79517 14.3343 4.75584 14.1426C4.7165 13.9508 4.73431 13.7517 4.80705 13.57C4.85196 13.4459 4.92362 13.3332 5.01694 13.2399ZM17.1271 5.00002L18.4871 9.03002V9.06002C19.1267 9.22753 19.6931 9.60169 20.0982 10.1243C20.5033 10.647 20.7244 11.2888 20.7271 11.95V12.2484H20.727V12.5324C20.727 13.0847 20.2793 13.5324 19.727 13.5324C19.1748 13.5324 18.7271 13.0847 18.7271 12.5324V12.2484V12.0776V11.95C18.7271 11.6848 18.6217 11.4305 18.4342 11.2429C18.2466 11.0554 17.9923 10.95 17.7271 10.95H3.72705C3.46183 10.95 3.20748 11.0554 3.01994 11.2429C2.83241 11.4305 2.72705 11.6848 2.72705 11.95V15.95C2.72705 16.2152 2.83241 16.4696 3.01994 16.6571C3.20748 16.8447 3.46183 16.95 3.72705 16.95H12.927V18.95H4.72705V19.95C4.72705 20.2152 4.62169 20.4696 4.43416 20.6571C4.24662 20.8447 3.99227 20.95 3.72705 20.95C3.46183 20.95 3.20748 20.8447 3.01994 20.6571C2.83241 20.4696 2.72705 20.2152 2.72705 19.95V18.77C2.1435 18.5637 1.63805 18.182 1.27999 17.6771C0.921929 17.1722 0.72879 16.569 0.727051 15.95V11.95C0.729727 11.2888 0.950793 10.647 1.35588 10.1243C1.76097 9.60169 2.32738 9.22753 2.96705 9.06002L4.32705 5.00002C4.5345 4.41325 4.9193 3.90553 5.42815 3.54718C5.937 3.18884 6.54469 2.99762 7.16705 3.00002H14.2871C14.9094 2.99762 15.5171 3.18884 16.026 3.54718C16.5348 3.90553 16.9196 4.41325 17.1271 5.00002ZM6.58242 5.13686C6.41195 5.25889 6.28414 5.4314 6.21705 5.63002L5.11705 8.95002H16.3371L15.2871 5.63002C15.2175 5.42304 15.0821 5.24452 14.9015 5.12174C14.7209 4.99895 14.5051 4.93864 14.2871 4.95002H7.16705C6.95741 4.94948 6.7529 5.01484 6.58242 5.13686ZM15.0169 13.2399C15.1103 13.1466 15.223 13.0749 15.3471 13.03C15.5292 12.9534 15.7299 12.9325 15.9239 12.9699C16.1179 13.0073 16.2964 13.1013 16.437 13.24C16.6198 13.4317 16.7234 13.6853 16.7271 13.95C16.7304 14.0812 16.703 14.2113 16.6471 14.33C16.6021 14.4541 16.5305 14.5668 16.4372 14.6601C16.3438 14.7535 16.2311 14.8251 16.107 14.87C15.9253 14.9428 15.7262 14.9606 15.5345 14.9212C15.3427 14.8819 15.1667 14.7872 15.0283 14.6487C14.8899 14.5103 14.7952 14.3343 14.7558 14.1426C14.7165 13.9508 14.7343 13.7517 14.8071 13.57C14.852 13.4459 14.9236 13.3332 15.0169 13.2399ZM9.72705 12.95H11.7271C11.9923 12.95 12.2466 13.0554 12.4342 13.2429C12.6217 13.4305 12.7271 13.6848 12.7271 13.95C12.7271 14.2152 12.6217 14.4696 12.4342 14.6571C12.2466 14.8447 11.9923 14.95 11.7271 14.95H9.72705C9.46183 14.95 9.20748 14.8447 9.01994 14.6571C8.83241 14.4696 8.72705 14.2152 8.72705 13.95C8.72705 13.6848 8.83241 13.4305 9.01994 13.2429C9.20748 13.0554 9.46183 12.95 9.72705 12.95ZM17.6656 19.8C17.8578 19.2132 17.8578 18.576 17.6656 17.9891C18.2699 17.8622 18.8217 17.5436 19.2338 17.0837C19.6459 17.5436 20.1978 17.8622 20.802 17.9891C20.6099 18.576 20.6099 19.2132 20.802 19.8C20.1978 19.9269 19.6459 20.2455 19.2338 20.7054C18.8217 20.2455 18.2699 19.9269 17.6656 19.8ZM18.1545 15.3289C18.3512 14.1022 20.1164 14.1022 20.3131 15.3289C20.4229 16.0135 21.1343 16.4243 21.7822 16.177C22.9428 15.734 23.8254 17.2627 22.8615 18.0464C22.3234 18.4838 22.3234 19.3053 22.8615 19.7427C23.8254 20.5264 22.9429 22.0551 21.7822 21.6121C21.1343 21.3648 20.4229 21.7756 20.3131 22.4603C20.1164 23.6869 18.3512 23.6869 18.1545 22.4603C18.0447 21.7756 17.3333 21.3648 16.6855 21.6121C15.5248 22.0551 14.6422 20.5264 15.6062 19.7427C16.1443 19.3053 16.1443 18.4838 15.6062 18.0464C14.6422 17.2627 15.5248 15.734 16.6855 16.177C17.3333 16.4243 18.0447 16.0135 18.1545 15.3289ZM12.927 16.9493V18.9492H13.3818C13.9341 18.9492 14.3818 18.5015 14.3818 17.9493C14.3818 17.397 13.9341 16.9493 13.3818 16.9493H12.927Z" fill="currentColor"/>
</svg>
