<svg viewBox="0 0 24 24" fill="none"  width="100%" height="100%" xmlns="http://www.w3.org/2000/svg">
<path fill-rule="evenodd" clip-rule="evenodd" d="M14.0099 11.7255C14.9381 10.991 15.6157 9.98657 15.9491 8.85058C16.2839 7.7095 16.2548 6.49242 15.8657 5.36868C15.4766 4.24493 14.747 3.27039 13.7782 2.58064C12.8095 1.89089 11.6499 1.52023 10.4607 1.52023C9.27148 1.52023 8.11185 1.89089 7.14312 2.58064C6.17439 3.27039 5.44474 4.24493 5.05566 5.36868C4.66659 6.49242 4.63745 7.7095 4.9723 8.85058C5.30714 9.99167 5.98932 11 6.92393 11.7353C5.32246 12.3769 3.92512 13.4411 2.88088 14.8144C1.83664 16.1877 1.18464 17.8186 0.994398 19.5333C0.980627 19.6585 0.991649 19.7852 1.02683 19.9061C1.06202 20.0271 1.12068 20.1399 1.19946 20.2381C1.35858 20.4366 1.59 20.5637 1.84284 20.5915C2.09567 20.6193 2.34919 20.5455 2.54764 20.3864C2.74608 20.2273 2.87319 19.9959 2.901 19.7431C3.11033 17.8795 3.9989 16.1585 5.39695 14.9087C6.73722 13.7105 8.45565 13.026 10.2476 12.9715C10.3178 12.9875 10.3908 12.996 10.4658 12.996C11.7725 12.996 12.9996 13.3249 14.0715 13.9037C14.3221 14.0391 14.5644 14.1881 14.7973 14.3499C15.2395 14.6572 15.847 14.5478 16.1543 14.1056C16.4616 13.6634 16.3521 13.0558 15.9099 12.7485C15.6175 12.5454 15.3131 12.3581 14.998 12.1879C14.6791 12.0157 14.3493 11.8611 14.0099 11.7255ZM10.7235 11.0494C11.6388 10.9862 12.5041 10.5945 13.157 9.94162C13.8721 9.22651 14.2739 8.2566 14.2739 7.24528C14.2739 6.4911 14.0502 5.75385 13.6312 5.12678C13.2122 4.4997 12.6167 4.01095 11.9199 3.72234C11.2232 3.43373 10.4564 3.35821 9.71676 3.50534C8.97707 3.65248 8.29762 4.01565 7.76434 4.54894C7.23105 5.08222 6.86788 5.76167 6.72074 6.50136C6.57361 7.24105 6.64912 8.00776 6.93774 8.70453C7.22635 9.4013 7.7151 9.99684 8.34218 10.4158C8.93163 10.8097 9.61843 11.0309 10.3251 11.0561C10.3711 11.0494 10.418 11.046 10.4658 11.046C10.552 11.046 10.6379 11.0471 10.7235 11.0494ZM17.4042 17.0886C17.5964 17.6755 17.5964 18.3127 17.4042 18.8995C18.0085 19.0264 18.5604 19.345 18.9725 19.8049C19.3846 19.345 19.9364 19.0264 20.5407 18.8995C20.3485 18.3127 20.3485 17.6755 20.5407 17.0886C19.9364 16.9617 19.3846 16.6431 18.9725 16.1832C18.5604 16.6431 18.0085 16.9617 17.4042 17.0886ZM20.0518 14.4284C19.8551 13.2017 18.0899 13.2017 17.8932 14.4284C17.7834 15.113 17.072 15.5238 16.4241 15.2765C15.2634 14.8335 14.3809 16.3622 15.3448 17.1459C15.8829 17.5833 15.8829 18.4048 15.3448 18.8422C14.3809 19.6259 15.2634 21.1546 16.4241 20.7116C17.072 20.4643 17.7834 20.8751 17.8932 21.5598C18.0899 22.7864 19.8551 22.7864 20.0518 21.5598C20.1616 20.8751 20.8729 20.4643 21.5208 20.7116C22.6815 21.1546 23.5641 19.6259 22.6001 18.8422C22.062 18.4048 22.062 17.5833 22.6001 17.1459C23.5641 16.3622 22.6815 14.8335 21.5208 15.2765C20.8729 15.5238 20.1616 15.113 20.0518 14.4284Z" fill="currentColor"/>
</svg>
