<svg viewBox="0 0 24 24" fill="none" xmlns="http://www.w3.org/2000/svg">
<path d="M12.71 15.54L18.36 9.88C18.4538 9.78704 18.5281 9.67644 18.5789 9.55458C18.6297 9.43272 18.6558 9.30201 18.6558 9.17C18.6558 9.03799 18.6297 8.90728 18.5789 8.78542C18.5281 8.66356 18.4538 8.55296 18.36 8.46C18.1727 8.27375 17.9192 8.16921 17.655 8.16921C17.3908 8.16921 17.1374 8.27375 16.95 8.46L11.95 13.41L7.00002 8.46C6.81266 8.27375 6.55921 8.16921 6.29502 8.16921C6.03084 8.16921 5.77739 8.27375 5.59002 8.46C5.49554 8.55262 5.42037 8.66306 5.36887 8.78494C5.31737 8.90681 5.29057 9.03769 5.29003 9.17C5.29057 9.30231 5.31737 9.43319 5.36887 9.55507C5.42037 9.67694 5.49554 9.78739 5.59002 9.88L11.24 15.54C11.3337 15.6415 11.4473 15.7225 11.5738 15.7779C11.7003 15.8333 11.8369 15.8619 11.975 15.8619C12.1131 15.8619 12.2497 15.8333 12.3762 15.7779C12.5027 15.7225 12.6164 15.6415 12.71 15.54Z" fill="currentColor"/>
</svg>
