<svg viewBox="0 0 24 24" fill="none"  width="100%" height="100%" xmlns="http://www.w3.org/2000/svg">
<path fill-rule="evenodd" clip-rule="evenodd" d="M12.1445 4C7.64656 4 4.00024 7.64632 4.00024 12.1443C4.00024 16.6423 7.64656 20.2886 12.1445 20.2886L12.1445 22.2886C6.54199 22.2886 2.00024 17.7468 2.00024 12.1443C2.00024 6.54175 6.54199 2 12.1445 2L12.1445 4Z" fill="currentColor"/>
<path fill-rule="evenodd" clip-rule="evenodd" d="M13.4682 22.2029C13.0345 22.2595 12.5927 22.2886 12.1445 22.2886L12.1445 20.2886C12.506 20.2886 12.8614 20.2651 13.2095 20.2197C13.7572 20.1482 14.259 20.5343 14.3305 21.0819C14.4019 21.6296 14.0159 22.1314 13.4682 22.2029ZM12.1445 1.99999C12.5927 1.99999 13.0345 2.02912 13.4682 2.08569C14.0159 2.15712 14.4019 2.65899 14.3305 3.20663C14.259 3.75428 13.7572 4.14032 13.2095 4.06888C12.8614 4.02348 12.506 3.99999 12.1445 3.99999L12.1445 1.99999ZM16.9185 20.0087C16.582 19.5708 16.6642 18.943 17.1021 18.6064C17.6667 18.1726 18.1728 17.6664 18.6067 17.1019C18.9432 16.6639 19.571 16.5817 20.0089 16.9183C20.4468 17.2548 20.529 17.8826 20.1925 18.3205C19.6528 19.0229 19.0231 19.6525 18.3208 20.1923C17.8828 20.5288 17.255 20.4466 16.9185 20.0087ZM16.9185 4.27988C17.255 3.84197 17.8828 3.75977 18.3208 4.09629C19.0231 4.63605 19.6528 5.26567 20.1925 5.96806C20.529 6.40598 20.4469 7.03378 20.0089 7.3703C19.571 7.70683 18.9432 7.62463 18.6067 7.18671C18.1728 6.62215 17.6667 6.11597 17.1021 5.68213C16.6642 5.34561 16.582 4.7178 16.9185 4.27988ZM21.0822 14.3302C20.5345 14.2588 20.1485 13.7569 20.2199 13.2093C20.2653 12.8612 20.2888 12.5057 20.2888 12.1443C20.2888 11.7829 20.2653 11.4274 20.2199 11.0793C20.1485 10.5317 20.5345 10.0298 21.0822 9.95836C21.6298 9.88692 22.1317 10.273 22.2031 10.8206C22.2597 11.2543 22.2888 11.6961 22.2888 12.1443C22.2888 12.5924 22.2597 13.0343 22.2031 13.468C22.1317 14.0156 21.6298 14.4017 21.0822 14.3302Z" fill="currentColor"/>
<path d="M8.75586 15H10.2759L10.7659 13.41H13.3559L13.8459 15H15.5359L13.2159 7.85001H11.1059L8.75586 15ZM12.0659 9.17001L13.0059 12.26H11.1159L12.0659 9.17001Z" fill="currentColor"/>
</svg>
