<svg viewBox="0 0 24 24" fill="none" xmlns="http://www.w3.org/2000/svg">
<path fill-rule="evenodd" clip-rule="evenodd" d="M5.70505 11.5241C3.83674 11.5241 2.32217 13.0387 2.32217 14.907C2.32217 16.7753 3.83674 18.2899 5.70505 18.2899C7.57337 18.2899 9.08794 16.7753 9.08794 14.907C9.08794 13.0387 7.57337 11.5241 5.70505 11.5241ZM0.472168 14.907C0.472168 12.0169 2.81501 9.6741 5.70505 9.6741C8.5951 9.6741 10.9379 12.0169 10.9379 14.907C10.9379 17.797 8.5951 20.1399 5.70505 20.1399C2.81501 20.1399 0.472168 17.797 0.472168 14.907Z" fill="currentColor"/>
<path fill-rule="evenodd" clip-rule="evenodd" d="M18.2949 11.5241C16.4266 11.5241 14.912 13.0387 14.912 14.907C14.912 16.7753 16.4266 18.2899 18.2949 18.2899C20.1632 18.2899 21.6778 16.7753 21.6778 14.907C21.6778 13.0387 20.1632 11.5241 18.2949 11.5241ZM13.062 14.907C13.062 12.0169 15.4049 9.6741 18.2949 9.6741C21.1849 9.6741 23.5278 12.0169 23.5278 14.907C23.5278 17.797 21.1849 20.1399 18.2949 20.1399C15.4049 20.1399 13.062 17.797 13.062 14.907Z" fill="currentColor"/>
<path fill-rule="evenodd" clip-rule="evenodd" d="M15.722 6.31482L19.1105 14.4563C19.3068 14.9279 19.0836 15.4694 18.612 15.6657C18.1403 15.862 17.5988 15.6388 17.4025 15.1671L14.9201 9.20277L6.29179 15.5565C5.88042 15.8595 5.30138 15.7716 4.99846 15.3602C4.69554 14.9488 4.78345 14.3698 5.19481 14.0669L15.722 6.31482Z" fill="currentColor"/>
<path fill-rule="evenodd" clip-rule="evenodd" d="M11.5659 4.78512C11.5659 4.27426 11.9801 3.86012 12.4909 3.86012H15.3607C15.8715 3.86012 16.2857 4.27426 16.2857 4.78512V8.21627C16.2857 8.72714 15.8715 9.14127 15.3607 9.14127C14.8498 9.14127 14.4357 8.72714 14.4357 8.21627V5.71012H12.4909C11.9801 5.71012 11.5659 5.29599 11.5659 4.78512Z" fill="currentColor"/>
<path fill-rule="evenodd" clip-rule="evenodd" d="M6.82916 5.38077C7.3068 5.19954 7.84092 5.43983 8.02214 5.91746L10.1204 11.4474C10.3016 11.9251 10.0613 12.4592 9.58368 12.6404C9.10604 12.8216 8.57192 12.5814 8.39069 12.1037L6.29247 6.57375C6.11124 6.09612 6.35152 5.562 6.82916 5.38077Z" fill="currentColor"/>
<path fill-rule="evenodd" clip-rule="evenodd" d="M4.78027 6.24562C4.78027 5.73475 5.19441 5.32062 5.70527 5.32062H8.61439C9.12525 5.32062 9.53939 5.73475 9.53939 6.24562C9.53939 6.75648 9.12525 7.17062 8.61439 7.17062H5.70527C5.19441 7.17062 4.78027 6.75648 4.78027 6.24562Z" fill="currentColor"/>
</svg>
