<svg viewBox="0 0 24 24" fill="none"  width="100%" height="100%" xmlns="http://www.w3.org/2000/svg">
<path fill-rule="evenodd" clip-rule="evenodd" d="M17.9756 5.33448C17.7156 4.84726 17.1098 4.66312 16.6225 4.92318C16.1353 5.18325 15.9512 5.78905 16.2112 6.27627L16.9974 7.74918L16.7672 8.22987H6.90218H6.61502H1.58344C1.03115 8.22987 0.583435 8.67758 0.583435 9.22987C0.583435 9.78215 1.03115 10.2299 1.58344 10.2299H6.33642L9.57507 15.6195C9.75588 15.9204 10.0812 16.1044 10.4322 16.1044L14.5827 16.1044C14.9676 16.1044 15.3183 15.8835 15.4845 15.5364L18.1662 9.93872L18.8389 11.199C19.099 11.6862 19.7048 11.8704 20.192 11.6103C20.6792 11.3502 20.8633 10.7444 20.6033 10.2572L17.9756 5.33448ZM8.66973 10.2299H15.809L13.9529 14.1044L10.998 14.1044L8.66973 10.2299ZM3.36523 15.7494C3.36523 14.9512 4.01232 14.3041 4.81054 14.3041C5.60877 14.3041 6.25585 14.9512 6.25585 15.7494C6.25585 16.5477 5.60877 17.1947 4.81054 17.1947C4.01232 17.1947 3.36523 16.5477 3.36523 15.7494ZM4.81054 12.3041C2.90775 12.3041 1.36523 13.8466 1.36523 15.7494C1.36523 17.6522 2.90775 19.1947 4.81054 19.1947C6.71334 19.1947 8.25585 17.6522 8.25585 15.7494C8.25585 13.8466 6.71334 12.3041 4.81054 12.3041ZM19.971 14.3041C19.1728 14.3041 18.5257 14.9512 18.5257 15.7494C18.5257 16.5477 19.1728 17.1947 19.971 17.1947C20.7692 17.1947 21.4163 16.5477 21.4163 15.7494C21.4163 14.9512 20.7692 14.3041 19.971 14.3041ZM16.5257 15.7494C16.5257 13.8466 18.0682 12.3041 19.971 12.3041C21.8738 12.3041 23.4163 13.8466 23.4163 15.7494C23.4163 17.6522 21.8738 19.1947 19.971 19.1947C18.0682 19.1947 16.5257 17.6522 16.5257 15.7494Z" fill="currentColor"/>
</svg>
