<svg viewBox="0 0 24 24" fill="none" xmlns="http://www.w3.org/2000/svg">
<path d="M15.71 8.29C15.6171 8.19627 15.5065 8.12188 15.3846 8.07111C15.2627 8.02034 15.132 7.9942 15 7.9942C14.868 7.9942 14.7373 8.02034 14.6154 8.07111C14.4936 8.12188 14.383 8.19627 14.29 8.29L12 10.59L9.71002 8.29C9.52171 8.1017 9.26632 7.99591 9.00002 7.99591C8.73372 7.99591 8.47832 8.1017 8.29002 8.29C8.10171 8.4783 7.99593 8.7337 7.99593 9C7.99593 9.2663 8.10171 9.5217 8.29002 9.71L10.59 12L8.29002 14.29C8.19629 14.383 8.1219 14.4936 8.07113 14.6154C8.02036 14.7373 7.99422 14.868 7.99422 15C7.99422 15.132 8.02036 15.2627 8.07113 15.3846C8.1219 15.5064 8.19629 15.617 8.29002 15.71C8.38298 15.8037 8.49358 15.8781 8.61544 15.9289C8.7373 15.9797 8.86801 16.0058 9.00002 16.0058C9.13203 16.0058 9.26274 15.9797 9.38459 15.9289C9.50645 15.8781 9.61705 15.8037 9.71002 15.71L12 13.41L14.29 15.71C14.383 15.8037 14.4936 15.8781 14.6154 15.9289C14.7373 15.9797 14.868 16.0058 15 16.0058C15.132 16.0058 15.2627 15.9797 15.3846 15.9289C15.5065 15.8781 15.6171 15.8037 15.71 15.71C15.8037 15.617 15.8781 15.5064 15.9289 15.3846C15.9797 15.2627 16.0058 15.132 16.0058 15C16.0058 14.868 15.9797 14.7373 15.9289 14.6154C15.8781 14.4936 15.8037 14.383 15.71 14.29L13.41 12L15.71 9.71C15.8037 9.61704 15.8781 9.50643 15.9289 9.38458C15.9797 9.26272 16.0058 9.13201 16.0058 9C16.0058 8.86799 15.9797 8.73728 15.9289 8.61542C15.8781 8.49356 15.8037 8.38296 15.71 8.29ZM19.07 4.93C18.1476 3.9749 17.0441 3.21308 15.8241 2.68899C14.604 2.1649 13.2918 1.88903 11.964 1.87749C10.6362 1.86596 9.31944 2.11897 8.09048 2.62178C6.86151 3.12459 5.745 3.86712 4.80607 4.80605C3.86714 5.74498 3.12461 6.8615 2.6218 8.09046C2.11899 9.31942 1.86598 10.6362 1.87751 11.964C1.88905 13.2918 2.16491 14.604 2.689 15.824C3.21309 17.0441 3.97492 18.1475 4.93002 19.07C5.85249 20.0251 6.95593 20.7869 8.17597 21.311C9.39601 21.8351 10.7082 22.111 12.036 22.1225C13.3638 22.134 14.6806 21.881 15.9096 21.3782C17.1385 20.8754 18.255 20.1329 19.194 19.194C20.1329 18.255 20.8754 17.1385 21.3782 15.9095C21.881 14.6806 22.1341 13.3638 22.1225 12.036C22.111 10.7082 21.8351 9.39599 21.311 8.17595C20.7869 6.95591 20.0251 5.85247 19.07 4.93ZM17.66 17.66C16.3521 18.9694 14.6306 19.7848 12.7888 19.9673C10.9471 20.1498 9.09902 19.6881 7.55954 18.6608C6.02006 17.6335 4.88438 16.1042 4.34599 14.3335C3.80761 12.5628 3.89982 10.6601 4.60693 8.94978C5.31404 7.23943 6.59229 5.82715 8.22391 4.95356C9.85553 4.07998 11.7396 3.79913 13.555 4.15887C15.3705 4.51862 17.0051 5.49669 18.1803 6.92646C19.3555 8.35623 19.9986 10.1492 20 12C20.0036 13.0513 19.7986 14.0928 19.3969 15.0644C18.9953 16.0359 18.4049 16.9181 17.66 17.66Z" fill="currentColor"/>
</svg>
