<svg viewBox="0 0 24 24" fill="none" xmlns="http://www.w3.org/2000/svg">
<path d="M14.8888 9.21881C14.196 8.73838 13.4371 8.49493 12.6252 8.36155C10.1579 7.95634 8.04466 9.70007 7.88962 12.1368C7.71186 14.9315 10.4263 17.333 13.4681 16.3749C13.5818 16.3396 13.6954 16.2678 13.8072 16.2713C13.925 16.2749 14.0826 16.3146 14.1496 16.3977C14.5657 16.9132 14.9475 17.4572 15.3701 17.9666C15.554 18.1885 15.5912 18.3446 15.2972 18.4375C14.5294 18.6785 13.7677 19.0165 12.9804 19.1028C10.5774 19.3658 8.42444 18.7554 6.75924 16.9085C5.06072 15.0245 4.60819 12.8139 5.33207 10.4088C6.05042 8.02227 7.70162 6.53129 10.1092 5.94774C12.1254 5.45918 14.0373 5.82483 15.8243 6.88046C16.1602 7.07859 16.1955 7.24023 15.9648 7.55891C15.591 8.07371 15.2683 8.62584 14.8888 9.21881Z" fill="currentColor"/>
<path d="M20.0003 14.9167C19.9966 15.9205 19.1187 16.799 18.1096 16.809C17.0957 16.8189 16.1922 15.8864 16.2041 14.8423C16.2159 13.8416 17.1213 12.9606 18.1219 12.9781C19.1666 12.9964 20.0043 13.8608 20.0003 14.9167Z" fill="currentColor"/>
</svg>
