<svg viewBox="0 0 24 24" fill="none"  width="100%" height="100%" xmlns="http://www.w3.org/2000/svg">
<path d="M14.7901 12H13.0001V4.99998C13.0001 4.44998 12.5501 3.99998 12.0001 3.99998C11.4501 3.99998 11.0001 4.44998 11.0001 4.99998V12H9.21012C8.76012 12 8.54012 12.54 8.86012 12.85L11.6501 15.64C11.8501 15.84 12.1601 15.84 12.3601 15.64L15.1501 12.85C15.4601 12.54 15.2401 12 14.7901 12ZM5.00012 19C5.00012 19.55 5.45012 20 6.00012 20H18.0001C18.5501 20 19.0001 19.55 19.0001 19C19.0001 18.45 18.5501 18 18.0001 18H6.00012C5.45012 18 5.00012 18.45 5.00012 19Z" fill="currentColor"/>
</svg>
