<svg width="20" height="21" viewBox="0 0 20 21" xmlns="http://www.w3.org/2000/svg">
<path d="M10 5.92707C9.77901 5.92707 9.56705 6.01487 9.41077 6.17115C9.25449 6.32743 9.16669 6.53939 9.16669 6.76041V10.0937C9.16669 10.3148 9.25449 10.5267 9.41077 10.683C9.56705 10.8393 9.77901 10.9271 10 10.9271C10.221 10.9271 10.433 10.8393 10.5893 10.683C10.7456 10.5267 10.8334 10.3148 10.8334 10.0937V6.76041C10.8334 6.53939 10.7456 6.32743 10.5893 6.17115C10.433 6.01487 10.221 5.92707 10 5.92707ZM10 12.5937C9.8352 12.5937 9.67409 12.6426 9.53705 12.7342C9.4 12.8258 9.29319 12.9559 9.23012 13.1082C9.16705 13.2604 9.15055 13.428 9.1827 13.5897C9.21485 13.7513 9.29422 13.8998 9.41077 14.0163C9.52731 14.1329 9.67579 14.2122 9.83745 14.2444C9.9991 14.2765 10.1667 14.26 10.3189 14.197C10.4712 14.1339 10.6013 14.0271 10.6929 13.89C10.7845 13.753 10.8334 13.5919 10.8334 13.4271C10.8334 13.2061 10.7456 12.9941 10.5893 12.8378C10.433 12.6815 10.221 12.5937 10 12.5937ZM18.0917 6.39374L13.7 2.00207C13.5403 1.8498 13.329 1.76348 13.1084 1.76041H6.89169C6.67105 1.76348 6.45972 1.8498 6.30002 2.00207L1.90835 6.39374C1.75608 6.55343 1.66976 6.76477 1.66669 6.98541V13.2021C1.66976 13.4227 1.75608 13.634 1.90835 13.7937L6.30002 18.1854C6.45972 18.3377 6.67105 18.424 6.89169 18.4271H13.1084C13.329 18.424 13.5403 18.3377 13.7 18.1854L18.0917 13.7937C18.244 13.634 18.3303 13.4227 18.3334 13.2021V6.98541C18.3303 6.76477 18.244 6.55343 18.0917 6.39374ZM16.6667 12.8521L12.7584 16.7604H7.24169L3.33335 12.8521V7.33541L7.24169 3.42707H12.7584L16.6667 7.33541V12.8521Z" fill="currentColor"/>
</svg>
