<svg viewBox="0 0 24 24" fill="none"  width="100%" height="100%" xmlns="http://www.w3.org/2000/svg">
<g clip-path="url(#clip0_1381_2168)">
<path fill-rule="evenodd" clip-rule="evenodd" d="M5.98031 5.79242C6.37844 5.4884 6.9401 5.52587 7.29432 5.88009L10.7714 9.35716C10.7737 9.35944 10.776 9.36172 10.7782 9.36402L14.6359 13.2217C14.6382 13.224 14.6406 13.2263 14.6429 13.2286L18.1199 16.7057C18.3239 16.9097 18.4299 17.1919 18.4105 17.4798C18.3912 17.7677 18.2485 18.0332 18.019 18.2081C16.2916 19.5248 14.1881 20.2543 12.0163 20.2898L12 20.2899C8.41114 20.2899 5.65921 18.241 3.86661 16.3289C2.96119 15.3631 2.27021 14.4012 1.80547 13.6816C1.57248 13.3208 1.39472 13.0184 1.27382 12.8035C1.21333 12.696 1.16697 12.6101 1.13493 12.5496C1.11891 12.5193 1.10647 12.4953 1.09762 12.4781L1.08705 12.4574L1.08379 12.451L1.08267 12.4488L1.08224 12.4479C1.08206 12.4475 1.08189 12.4472 1.97632 12L1.08189 12.4472C0.93658 12.1566 0.941529 11.8135 1.09516 11.5272C2.29607 9.28916 3.9617 7.33386 5.98031 5.79242ZM3.1201 12.0028C3.21542 12.166 3.33747 12.3672 3.48555 12.5965C3.90358 13.2438 4.52252 14.1043 5.32568 14.961C6.94866 16.6922 9.20575 18.2868 11.9918 18.2899C13.3458 18.2664 14.6664 17.9073 15.8383 17.2525L13.8546 15.2688C13.7248 15.3467 13.5902 15.4168 13.4514 15.4787C12.9934 15.6827 12.499 15.7925 11.9977 15.8013C11.4963 15.8102 10.9984 15.7179 10.5335 15.5302C10.0685 15.3424 9.64621 15.0629 9.29166 14.7083C8.93711 14.3538 8.65761 13.9314 8.46982 13.4665C8.28203 13.0016 8.18981 12.5036 8.19866 12.0023C8.2075 11.501 8.31723 11.0066 8.5213 10.5486C8.58316 10.4097 8.65329 10.2751 8.73122 10.1454L6.51591 7.93011C5.16341 9.0863 4.0151 10.4631 3.1201 12.0028ZM10.2466 11.6608C10.2168 11.784 10.2006 11.9103 10.1983 12.0376C10.1942 12.2704 10.2371 12.5016 10.3243 12.7175C10.4115 12.9334 10.5412 13.1295 10.7059 13.2941C10.8705 13.4587 11.0666 13.5885 11.2825 13.6757C11.4984 13.7629 11.7296 13.8057 11.9624 13.8016C12.0897 13.7994 12.216 13.7831 12.3392 13.7534L10.2466 11.6608Z" fill="currentColor"/>
<path fill-rule="evenodd" clip-rule="evenodd" d="M1.26921 1.26921C1.65974 0.878687 2.2929 0.878687 2.68343 1.26921L22.7308 21.3166C23.1213 21.7071 23.1213 22.3403 22.7308 22.7308C22.3403 23.1213 21.7071 23.1213 21.3166 22.7308L1.26921 2.68343C0.878687 2.2929 0.878687 1.65974 1.26921 1.26921Z" fill="currentColor"/>
<path fill-rule="evenodd" clip-rule="evenodd" d="M10.3143 5.90242C10.8661 5.77327 11.431 5.70871 11.9977 5.71004L12 5.71004C14.7899 5.71004 17.0498 7.30609 18.6743 9.03896C19.4775 9.89567 20.0964 10.7562 20.5145 11.4035C20.662 11.6319 20.7837 11.8326 20.8789 11.9955V12.0008C20.4164 12.7994 19.8849 13.5564 19.2903 14.263C18.9347 14.6856 18.989 15.3164 19.4116 15.672C19.8341 16.0276 20.465 15.9733 20.8206 15.5507C21.6208 14.5996 22.3197 13.5676 22.9056 12.4714C23.0585 12.1853 23.0632 11.8429 22.9181 11.5528L22.125 11.9493C22.9181 11.5527 22.9173 11.5512 22.9173 11.5512L22.9162 11.549L22.913 11.5425L22.9024 11.5219C22.8935 11.5046 22.8811 11.4807 22.8651 11.4504C22.833 11.3899 22.7867 11.304 22.7262 11.1965C22.6053 10.9816 22.4275 10.6792 22.1945 10.3184C21.7298 9.59882 21.0388 8.63686 20.1334 7.67108C18.341 5.75918 15.5895 3.7105 12.0012 3.71005L12 3.71004V3.74146L12.0024 3.71005L12.0012 3.71005C11.2799 3.70844 10.5608 3.79066 9.85849 3.95506C9.32074 4.08093 8.98685 4.61891 9.11272 5.15666C9.2386 5.69441 9.77657 6.0283 10.3143 5.90242Z" fill="currentColor"/>
</g>
</svg>
