<svg viewBox="0 0 24 24" fill="none" xmlns="http://www.w3.org/2000/svg">
<path fill-rule="evenodd" clip-rule="evenodd" d="M22.7275 1.31383C22.7208 1.30677 22.714 1.29979 22.7071 1.29289C22.5313 1.11706 22.3063 1.0204 22.0763 1.0029C22.0138 0.998104 21.9507 0.999168 21.8877 1.00628C21.8065 1.01541 21.7262 1.03446 21.6488 1.06344L1.66965 8.05614C1.28265 8.19159 1.01755 8.54956 1.00084 8.95923C0.984122 9.36891 1.21919 9.74728 1.59387 9.91381L10.2424 13.7576L14.0862 22.4061C14.2527 22.7808 14.6311 23.0159 15.0408 22.9992C15.4504 22.9825 15.8084 22.7173 15.9439 22.3303L22.9366 2.35102C22.965 2.27519 22.9838 2.19661 22.9932 2.11713C23.0275 1.82647 22.9326 1.53129 22.7275 1.31383ZM18.1943 4.39147L4.71108 9.1106L10.7785 11.8072L18.1943 4.39147ZM12.1928 13.2215L19.6085 5.80568L14.8894 19.2889L12.1928 13.2215Z" fill="currentColor"/>
</svg>
