<svg viewBox="0 0 24 24" fill="none" xmlns="http://www.w3.org/2000/svg">
<path fill-rule="evenodd" clip-rule="evenodd" d="M12.662 3.76148C13.6738 2.78431 15.0288 2.24361 16.4354 2.25583C17.8419 2.26806 19.1873 2.83222 20.1819 3.82682C21.1765 4.82142 21.7407 6.16688 21.7529 7.57341C21.7652 8.97993 21.2245 10.335 20.2473 11.3467L20.236 11.3582L17.5728 14.0215C17.5727 14.0215 17.5728 14.0214 17.5728 14.0215C17.029 14.5654 16.3744 14.9862 15.6537 15.255C14.933 15.5239 14.1629 15.6346 13.3957 15.5796C12.6284 15.5247 11.8819 15.3054 11.2069 14.9366C10.5318 14.5677 9.94401 14.0581 9.48326 13.4421C9.17712 13.0328 9.26073 12.4529 9.67 12.1468C10.0793 11.8406 10.6592 11.9242 10.9653 12.3335C11.2671 12.7369 11.6521 13.0708 12.0943 13.3123C12.5364 13.5539 13.0253 13.6975 13.5279 13.7335C14.0304 13.7695 14.5348 13.697 15.0069 13.5209C15.4789 13.3448 15.9076 13.0693 16.2638 12.713L18.9213 10.0555C19.558 9.3934 19.9102 8.50821 19.9022 7.58949C19.8942 6.66825 19.5246 5.787 18.8732 5.13556C18.2218 4.48412 17.3405 4.11461 16.4193 4.1066C15.5001 4.09861 14.6146 4.45113 13.9524 5.0884L12.4304 6.60152C12.068 6.96187 11.482 6.96016 11.1217 6.59771C10.7613 6.23526 10.763 5.64932 11.1255 5.28897L12.662 3.76148Z" fill="currentColor"/>
<path fill-rule="evenodd" clip-rule="evenodd" d="M8.34609 8.74497C9.06681 8.47612 9.83691 8.36542 10.6042 8.42037C11.3714 8.47532 12.1179 8.69463 12.793 9.06344C13.468 9.43225 14.0558 9.94193 14.5166 10.5579C14.8227 10.9672 14.7391 11.5471 14.3298 11.8532C13.9206 12.1594 13.3406 12.0758 13.0345 11.6665C12.7327 11.2631 12.3477 10.9292 11.9056 10.6877C11.4634 10.4461 10.9745 10.3025 10.472 10.2665C9.96942 10.2305 9.46502 10.303 8.99297 10.4791C8.52092 10.6552 8.09226 10.9307 7.73606 11.287L5.07858 13.9445C4.44188 14.6066 4.08969 15.4918 4.09767 16.4105C4.10568 17.3318 4.4752 18.213 5.12664 18.8644C5.77808 19.5159 6.65932 19.8854 7.58056 19.8934C8.49928 19.9014 9.38447 19.5492 10.0465 18.9125L11.5587 17.4004C11.9201 17.039 12.506 17.039 12.8674 17.4004C13.2288 17.7618 13.2288 18.3477 12.8674 18.7091L11.3493 20.2273L11.3378 20.2385C10.3261 21.2157 8.971 21.7564 7.56448 21.7442C6.15795 21.7319 4.8125 21.1678 3.8179 20.1732C2.8233 19.1786 2.25913 17.8331 2.24691 16.4266C2.23468 15.0201 2.77538 13.665 3.75255 12.6533L3.76382 12.6418L6.42709 9.97854C6.42705 9.97858 6.42713 9.9785 6.42709 9.97854C6.97089 9.43458 7.62543 9.0138 8.34609 8.74497Z" fill="currentColor"/>
</svg>
