<svg viewBox="0 0 24 24" fill="none"  width="100%" height="100%" xmlns="http://www.w3.org/2000/svg">
<path d="M16.5834 9.24999V7.41666C16.5834 6.20109 16.1005 5.0353 15.2409 4.17576C14.3814 3.31621 13.2156 2.83333 12 2.83333C10.7844 2.83333 9.61866 3.31621 8.75911 4.17576C7.89957 5.0353 7.41669 6.20109 7.41669 7.41666V9.24999C6.68734 9.24999 5.98787 9.53973 5.47214 10.0555C4.95642 10.5712 4.66669 11.2706 4.66669 12V18.4167C4.66669 19.146 4.95642 19.8455 5.47214 20.3612C5.98787 20.8769 6.68734 21.1667 7.41669 21.1667H16.5834C17.3127 21.1667 18.0122 20.8769 18.5279 20.3612C19.0436 19.8455 19.3334 19.146 19.3334 18.4167V12C19.3334 11.2706 19.0436 10.5712 18.5279 10.0555C18.0122 9.53973 17.3127 9.24999 16.5834 9.24999ZM9.25002 7.41666C9.25002 6.68732 9.53975 5.98784 10.0555 5.47212C10.5712 4.95639 11.2707 4.66666 12 4.66666C12.7294 4.66666 13.4288 4.95639 13.9446 5.47212C14.4603 5.98784 14.75 6.68732 14.75 7.41666V9.24999H9.25002V7.41666ZM17.5 18.4167C17.5 18.6598 17.4034 18.8929 17.2315 19.0648C17.0596 19.2368 16.8265 19.3333 16.5834 19.3333H7.41669C7.17357 19.3333 6.94041 19.2368 6.76851 19.0648C6.5966 18.8929 6.50002 18.6598 6.50002 18.4167V12C6.50002 11.7569 6.5966 11.5237 6.76851 11.3518C6.94041 11.1799 7.17357 11.0833 7.41669 11.0833H16.5834C16.8265 11.0833 17.0596 11.1799 17.2315 11.3518C17.4034 11.5237 17.5 11.7569 17.5 12V18.4167Z" fill="currentColor"/>
</svg>
