<svg viewBox="0 0 24 24" fill="none" xmlns="http://www.w3.org/2000/svg">
<path fill-rule="evenodd" clip-rule="evenodd" d="M2.23169 6.69188V17.3282C2.23169 18.7955 3.42851 19.9923 4.89579 19.9923H19.1043C20.5716 19.9923 21.7685 18.7955 21.7685 17.3282V6.67179C21.7685 5.20451 20.5716 4.00769 19.1043 4.00769H4.89579C3.43739 4.00769 2.24619 5.19006 2.23182 6.64517C2.23137 6.66075 2.23133 6.67633 2.23169 6.69188ZM4.10236 6.27578C4.2492 5.98532 4.55123 5.78376 4.89579 5.78376H19.1043C19.4488 5.78376 19.7508 5.98524 19.8977 6.2756L11.9999 11.8041L4.10236 6.27578ZM4.00776 8.37753L11.4906 13.6156C11.7964 13.8296 12.2034 13.8296 12.5092 13.6156L19.9924 8.37729V17.3282C19.9924 17.8146 19.5907 18.2162 19.1043 18.2162H4.89579C4.4094 18.2162 4.00776 17.8146 4.00776 17.3282V8.37753Z" fill="currentColor"/>
</svg>
