<svg viewBox="0 0 24 24" fill="none"  width="100%" height="100%" xmlns="http://www.w3.org/2000/svg">
<path fill-rule="evenodd" clip-rule="evenodd" d="M5.86496 2.60689C6.40973 2.69768 6.77775 3.21291 6.68695 3.75768L6.0013 7.87158C6.02023 8.41525 6.24448 8.93272 6.63046 9.3187C7.03413 9.72237 7.58164 9.94916 8.15252 9.94916C8.7234 9.94916 9.2709 9.72237 9.67458 9.3187C10.0606 8.93272 10.2848 8.41525 10.3037 7.87158L9.61808 3.75768C9.52729 3.21291 9.89531 2.69768 10.4401 2.60689C10.9848 2.51609 11.5001 2.88411 11.5909 3.42888L12.2914 7.63224C12.3005 7.68657 12.305 7.74156 12.305 7.79664C12.305 8.89795 11.8675 9.95416 11.0888 10.7329C10.5504 11.2713 9.87942 11.6466 9.15259 11.8269V20.4067C9.15259 20.959 8.70487 21.4067 8.15259 21.4067C7.6003 21.4067 7.15259 20.959 7.15259 20.4067V11.827C6.4257 11.6466 5.75466 11.2713 5.21624 10.7329C4.4375 9.95416 4 8.89795 4 7.79664C4 7.74156 4.00455 7.68657 4.01361 7.63224L4.71417 3.42888C4.80496 2.88411 5.32019 2.51609 5.86496 2.60689ZM9.15259 3.59328C9.15259 3.04099 8.70487 2.59328 8.15259 2.59328C7.6003 2.59328 7.15259 3.04099 7.15259 3.59328V7.09608C7.15259 7.64836 7.6003 8.09608 8.15259 8.09608C8.70487 8.09608 9.15259 7.64836 9.15259 7.09608V3.59328ZM19.661 3.59328C19.661 3.26707 19.5019 2.96136 19.2347 2.77422C18.9675 2.58707 18.6258 2.54201 18.3193 2.65349C17.0269 3.12344 16.0866 4.2442 15.4018 5.43827C14.7042 6.65455 14.185 8.09884 13.802 9.45058C13.4169 10.8098 13.158 12.1173 12.9954 13.0816C12.9139 13.5649 12.8562 13.9648 12.8186 14.2454C12.7998 14.3858 12.7861 14.4964 12.7769 14.5729C12.7723 14.6112 12.7689 14.6409 12.7666 14.6616L12.7639 14.6856L12.7631 14.6925L12.7628 14.6957C12.7627 14.696 12.7628 14.6957 13.7571 14.8022L12.7628 14.6957C12.7325 14.9778 12.8236 15.2596 13.0133 15.4706C13.2029 15.6817 13.4733 15.8022 13.7571 15.8022H17.661V20.4067C17.661 20.959 18.1087 21.4067 18.661 21.4067C19.2133 21.4067 19.661 20.959 19.661 20.4067V3.59328ZM17.661 13.8022H14.9043C14.9234 13.6807 14.9445 13.551 14.9676 13.4141C15.1224 12.4957 15.367 11.2637 15.7263 9.99578C16.0876 8.72042 16.5536 7.45004 17.1367 6.43329C17.3085 6.1338 17.4836 5.86824 17.661 5.6364V13.8022Z" fill="currentColor"/>
</svg>
