<svg viewBox="0 0 24 24" fill="none" xmlns="http://www.w3.org/2000/svg">
<path d="M20.46 9.63C20.3303 8.27183 19.8756 6.96482 19.1344 5.81943C18.3931 4.67403 17.387 3.7239 16.2011 3.04932C15.0152 2.37475 13.6843 1.99556 12.3209 1.94379C10.9576 1.89202 9.60179 2.1692 8.36814 2.7519C7.13449 3.3346 6.05923 4.2057 5.23322 5.29158C4.40722 6.37747 3.85475 7.64623 3.62249 8.99066C3.39023 10.3351 3.485 11.7157 3.89881 13.0157C4.31262 14.3158 5.0333 15.4972 5.99995 16.46L11.3 21.77C11.3929 21.8637 11.5035 21.9381 11.6254 21.9889C11.7472 22.0397 11.8779 22.0658 12.01 22.0658C12.142 22.0658 12.2727 22.0397 12.3945 21.9889C12.5164 21.9381 12.627 21.8637 12.72 21.77L18 16.46C18.8912 15.5755 19.5743 14.5036 19.9998 13.3223C20.4253 12.1409 20.5825 10.8797 20.46 9.63ZM16.6 15.05L12 19.65L7.39996 15.05C6.72204 14.3721 6.20276 13.5523 5.87942 12.6498C5.55609 11.7472 5.43674 10.7842 5.52996 9.83C5.62377 8.8611 5.93172 7.92516 6.43153 7.08984C6.93133 6.25453 7.61051 5.54071 8.41995 5C9.4809 4.29524 10.7263 3.9193 12 3.9193C13.2736 3.9193 14.519 4.29524 15.58 5C16.3869 5.53862 17.0646 6.24928 17.5643 7.08094C18.064 7.9126 18.3733 8.8446 18.47 9.81C18.5662 10.7674 18.4484 11.7343 18.1249 12.6405C17.8015 13.5468 17.2806 14.3698 16.6 15.05ZM13.79 6.25C13.697 6.15627 13.5864 6.08188 13.4645 6.03111C13.3427 5.98034 13.212 5.9542 13.08 5.9542C12.9479 5.9542 12.8172 5.98034 12.6954 6.03111C12.5735 6.08188 12.4629 6.15627 12.37 6.25L8.78995 9.83C8.60521 10.0163 8.50106 10.2677 8.49995 10.53V13C8.49995 13.2652 8.60531 13.5196 8.79285 13.7071C8.98038 13.8946 9.23474 14 9.49995 14H11.92C12.0516 14.0008 12.182 13.9755 12.3039 13.9258C12.4257 13.876 12.5365 13.8027 12.63 13.71L16.21 10.13C16.3962 9.94264 16.5007 9.68919 16.5007 9.425C16.5007 9.16082 16.3962 8.90736 16.21 8.72L13.79 6.25ZM11.51 12H10.51V11L13.09 8.42L14.09 9.42L11.51 12Z" fill="currentColor"/>
</svg>
