<svg width="26" height="25" viewBox="0 0 26 25" fill="none"  width="100%" height="100%" xmlns="http://www.w3.org/2000/svg">
<path d="M16 15H8C7.73478 15 7.48043 15.1054 7.29289 15.2929C7.10536 15.4804 7 15.7348 7 16C7 16.2652 7.10536 16.5196 7.29289 16.7071C7.48043 16.8946 7.73478 17 8 17H16C16.2652 17 16.5196 16.8946 16.7071 16.7071C16.8946 16.5196 17 16.2652 17 16C17 15.7348 16.8946 15.4804 16.7071 15.2929C16.5196 15.1054 16.2652 15 16 15ZM16 11H10C9.73478 11 9.48043 11.1054 9.29289 11.2929C9.10536 11.4804 9 11.7348 9 12C9 12.2652 9.10536 12.5196 9.29289 12.7071C9.48043 12.8946 9.73478 13 10 13H16C16.2652 13 16.5196 12.8946 16.7071 12.7071C16.8946 12.5196 17 12.2652 17 12C17 11.7348 16.8946 11.4804 16.7071 11.2929C16.5196 11.1054 16.2652 11 16 11ZM20 5H17V4C17 3.73478 16.8946 3.48043 16.7071 3.29289C16.5196 3.10536 16.2652 3 16 3C15.7348 3 15.4804 3.10536 15.2929 3.29289C15.1054 3.48043 15 3.73478 15 4V5H13V4C13 3.73478 12.8946 3.48043 12.7071 3.29289C12.5196 3.10536 12.2652 3 12 3C11.7348 3 11.4804 3.10536 11.2929 3.29289C11.1054 3.48043 11 3.73478 11 4V5H9V4C9 3.73478 8.89464 3.48043 8.70711 3.29289C8.51957 3.10536 8.26522 3 8 3C7.73478 3 7.48043 3.10536 7.29289 3.29289C7.10536 3.48043 7 3.73478 7 4V5H4C3.73478 5 3.48043 5.10536 3.29289 5.29289C3.10536 5.48043 3 5.73478 3 6V20C3 20.7956 3.31607 21.5587 3.87868 22.1213C4.44129 22.6839 5.20435 23 6 23H18C18.7956 23 19.5587 22.6839 20.1213 22.1213C20.6839 21.5587 21 20.7956 21 20V6C21 5.73478 20.8946 5.48043 20.7071 5.29289C20.5196 5.10536 20.2652 5 20 5ZM19 20C19 20.2652 18.8946 20.5196 18.7071 20.7071C18.5196 20.8946 18.2652 21 18 21H6C5.73478 21 5.48043 20.8946 5.29289 20.7071C5.10536 20.5196 5 20.2652 5 20V7H7V8C7 8.26522 7.10536 8.51957 7.29289 8.70711C7.48043 8.89464 7.73478 9 8 9C8.26522 9 8.51957 8.89464 8.70711 8.70711C8.89464 8.51957 9 8.26522 9 8V7H11V8C11 8.26522 11.1054 8.51957 11.2929 8.70711C11.4804 8.89464 11.7348 9 12 9C12.2652 9 12.5196 8.89464 12.7071 8.70711C12.8946 8.51957 13 8.26522 13 8V7H15V8C15 8.26522 15.1054 8.51957 15.2929 8.70711C15.4804 8.89464 15.7348 9 16 9C16.2652 9 16.5196 8.89464 16.7071 8.70711C16.8946 8.51957 17 8.26522 17 8V7H19V20Z" fill="#222222"/>
<path d="M19 0.5C15.6727 0.5 13 3.17273 13 6.5C13 9.82727 15.6727 12.5 19 12.5C22.3273 12.5 25 9.82727 25 6.5C25 3.17273 22.3273 0.5 19 0.5Z" fill="#206DD0" stroke="#F5F3F0"/>
<path d="M19 3.08868V4.27129M19 9.91132V8.74734" stroke="white" stroke-width="1.25" stroke-linecap="round" stroke-linejoin="round"/>
<path d="M20.5505 4.32918H18.2246C17.9367 4.32918 17.6606 4.44353 17.4571 4.64709C17.2535 4.85065 17.1392 5.12673 17.1392 5.4146C17.1392 5.70247 17.2535 5.97855 17.4571 6.1821C17.6606 6.38566 17.9367 6.50002 18.2246 6.50002H19.7752C20.063 6.50002 20.3391 6.61437 20.5427 6.81793C20.7462 7.02148 20.8606 7.29756 20.8606 7.58543C20.8606 7.8733 20.7462 8.14939 20.5427 8.35294C20.3391 8.5565 20.063 8.67085 19.7752 8.67085H17.1392" stroke="white" stroke-width="1.25" stroke-linecap="round" stroke-linejoin="round"/>
</svg>
