<svg viewBox="0 0 24 24" fill="none" xmlns="http://www.w3.org/2000/svg">
<path fill-rule="evenodd" clip-rule="evenodd" d="M11.9999 3.89494C7.52419 3.89494 3.89587 7.52326 3.89587 11.999C3.89587 16.4748 7.52419 20.1031 11.9999 20.1031C16.4757 20.1031 20.104 16.4748 20.104 11.999C20.104 7.52326 16.4757 3.89494 11.9999 3.89494ZM1.89587 11.999C1.89587 6.41869 6.41962 1.89494 11.9999 1.89494C17.5803 1.89494 22.104 6.41869 22.104 11.999C22.104 17.5793 17.5803 22.1031 11.9999 22.1031C6.41962 22.1031 1.89587 17.5793 1.89587 11.999ZM11.9999 8.97833C11.3012 8.97833 10.7347 9.54483 10.7347 10.2435C10.7347 10.7958 10.287 11.2435 9.73474 11.2435C9.18245 11.2435 8.73474 10.7958 8.73474 10.2435C8.73474 8.44026 10.1967 6.97833 11.9999 6.97833C13.8032 6.97833 15.2651 8.44026 15.2651 10.2435C15.2651 11.7531 14.3047 12.8182 13.0598 13.33L13.0587 13.3305C13.0071 13.3516 12.9492 13.394 12.8961 13.4495C12.8719 13.4747 12.8548 13.4963 12.8461 13.5081C12.8444 13.5103 12.8431 13.5121 12.8423 13.5133C12.5495 13.9711 11.9427 14.1121 11.4774 13.8269C11.0065 13.5383 10.8587 12.9226 11.1473 12.4517L11.9999 12.9743C11.1473 12.4517 11.1475 12.4515 11.1477 12.4512L11.148 12.4507L11.1487 12.4496L11.1501 12.4473L11.1532 12.4422L11.1608 12.4303C11.1664 12.4216 11.1731 12.4113 11.1809 12.3996C11.1966 12.3763 11.217 12.3471 11.242 12.3136C11.2916 12.2469 11.3616 12.1601 11.4521 12.0657C11.6283 11.8818 11.9102 11.6397 12.3003 11.4798C12.9761 11.2017 13.2651 10.7621 13.2651 10.2435C13.2651 9.54483 12.6986 8.97833 11.9999 8.97833ZM12.5246 15.1673C12.9948 15.457 13.1411 16.073 12.8514 16.5432L12.8493 16.5466C12.5596 17.0168 11.9436 17.163 11.4734 16.8733C11.0032 16.5836 10.8569 15.9676 11.1466 15.4974L11.1487 15.494C11.4384 15.0238 12.0545 14.8775 12.5246 15.1673Z" fill="currentColor"/>
</svg>
