<svg viewBox="0 0 24 24" fill="none" xmlns="http://www.w3.org/2000/svg">
<path d="M14.06 1C14.1519 1.01042 14.2424 1.03053 14.33 1.06L14.42 1.06C14.5228 1.10808 14.6173 1.17222 14.7 1.25L20.7 7.25C20.7778 7.33266 20.8419 7.42718 20.89 7.53L20.89 7.62C20.9483 7.72159 20.9857 7.83378 21 7.95L21 16C21 16.7956 20.6839 17.5587 20.1213 18.1213C19.5587 18.6839 18.7956 19 18 19L17 19L17 20C17 20.7956 16.6839 21.5587 16.1213 22.1213C15.5587 22.6839 14.7956 23 14 23L6 23C5.20435 23 4.44129 22.6839 3.87868 22.1213C3.31607 21.5587 3 20.7956 3 20L3 8C3 7.20435 3.31607 6.44129 3.87868 5.87868C4.44129 5.31607 5.20435 5 6 5L7 5L7 4C7 3.20435 7.31607 2.44129 7.87868 1.87868C8.44129 1.31607 9.20435 0.999999 10 1L14 1C14 1 14 1 14.06 1ZM17.59 7L15 4.41L15 6C15 6.26522 15.1054 6.51957 15.2929 6.70711C15.4804 6.89464 15.7348 7 16 7L17.59 7ZM6 7C5.73478 7 5.48043 7.10536 5.29289 7.29289C5.10536 7.48043 5 7.73478 5 8L5 20C5 20.2652 5.10536 20.5196 5.29289 20.7071C5.48043 20.8946 5.73478 21 6 21L14 21C14.2652 21 14.5196 20.8946 14.7071 20.7071C14.8946 20.5196 15 20.2652 15 20L15 19L10 19C9.20435 19 8.44129 18.6839 7.87868 18.1213C7.31607 17.5587 7 16.7956 7 16L7 7L6 7ZM10 3C9.73478 3 9.48043 3.10536 9.29289 3.29289C9.10536 3.48043 9 3.73478 9 4L9 16C9 16.2652 9.10536 16.5196 9.29289 16.7071C9.48043 16.8946 9.73478 17 10 17L18 17C18.2652 17 18.5196 16.8946 18.7071 16.7071C18.8946 16.5196 19 16.2652 19 16L19 9L16 9C15.2044 9 14.4413 8.68393 13.8787 8.12132C13.3161 7.55871 13 6.79565 13 6L13 3L10 3Z" fill="currentColor"/>
</svg>
