<svg viewBox="0 0 24 24" fill="none"  width="100%" height="100%" xmlns="http://www.w3.org/2000/svg">
<path fill-rule="evenodd" clip-rule="evenodd" d="M13.8914 9.71212V7.66906V7.41069H18.7007L18.7007 19.4334H6.6826V11.6602C6.6826 11.1634 6.27981 10.7606 5.78295 10.7606C5.28609 10.7606 4.8833 11.1634 4.8833 11.6602V19.4334C4.8833 20.4271 5.68887 21.2327 6.6826 21.2327H18.7007C19.6944 21.2327 20.5 20.4271 20.5 19.4334V7.41069C20.5 6.41696 19.6944 5.61139 18.7007 5.61139H13.8914V5.38632V3.34326C13.8914 2.82964 13.2751 2.57854 12.9212 2.93237L9.73681 6.11679C9.50854 6.34507 9.50854 6.69889 9.73681 6.92717L12.9212 10.1116C13.2751 10.4768 13.8914 10.2257 13.8914 9.71212ZM8.06549 6.52104C8.06549 7.78177 7.04347 8.80379 5.78274 8.80379C4.52202 8.80379 3.5 7.78177 3.5 6.52104C3.5 5.26032 4.52202 4.2383 5.78274 4.2383C7.04347 4.2383 8.06549 5.26032 8.06549 6.52104Z" fill="currentColor"/>
</svg>
