<svg viewBox="0 0 24 24" fill="none" xmlns="http://www.w3.org/2000/svg">
<path fill-rule="evenodd" clip-rule="evenodd" d="M13.8797 7.66353V9.70428C13.8797 10.2173 13.2641 10.4681 12.9107 10.1033L9.72984 6.92247C9.50182 6.69446 9.50182 6.34103 9.72984 6.11301L12.9107 2.93218C13.2641 2.57875 13.8797 2.82957 13.8797 3.34261V5.38336V5.60817H18.6832C19.6758 5.60817 20.4805 6.41284 20.4805 7.40544V15.2073C20.4805 15.7036 20.0782 16.1059 19.5819 16.1059C19.0856 16.1059 18.6832 15.7036 18.6832 15.2073V7.40544H13.8797V7.66353ZM5.78017 8.79698C7.03947 8.79698 8.06033 7.77611 8.06033 6.51681C8.06033 5.25751 7.03947 4.23665 5.78017 4.23665C4.52087 4.23665 3.5 5.25751 3.5 6.51681C3.5 7.77611 4.52087 8.79698 5.78017 8.79698ZM5.78007 10.7516C6.27638 10.7516 6.67871 11.1539 6.67871 11.6502V19.4146H14.4782C14.9745 19.4146 15.3769 19.8169 15.3769 20.3132C15.3769 20.8095 14.9745 21.2119 14.4782 21.2119H6.67871C5.6861 21.2119 4.88144 20.4072 4.88144 19.4146V11.6502C4.88144 11.1539 5.28377 10.7516 5.78007 10.7516ZM18.1755 18.1565H20.9889C21.4031 18.1565 21.7389 18.4923 21.7389 18.9065V21.72C21.7389 22.1342 21.4031 22.47 20.9889 22.47H18.1755C17.7612 22.47 17.4255 22.1342 17.4255 21.72V18.9065C17.4255 18.4923 17.7612 18.1565 18.1755 18.1565Z" fill="currentColor"/>
</svg>
