<svg viewBox="0 0 24 24" fill="none" xmlns="http://www.w3.org/2000/svg">
<path fill-rule="evenodd" clip-rule="evenodd" d="M7.35982 5.03406C6.80753 5.03406 6.35982 5.48177 6.35982 6.03406C6.35982 6.58634 6.80753 7.03406 7.35982 7.03406H15.3144C15.7524 7.03406 16.1725 7.20806 16.4822 7.51778C16.7919 7.8275 16.9659 8.24757 16.9659 8.68558C16.9659 9.1236 16.7919 9.54367 16.4822 9.85339C16.1725 10.1631 15.7524 10.3371 15.3144 10.3371H7.35982C6.21557 10.3371 5.11818 10.7917 4.30907 11.6008C3.49996 12.4099 3.04541 13.5073 3.04541 14.6515C3.04541 15.7958 3.49996 16.8932 4.30907 17.7023C5.11818 18.5114 6.21557 18.9659 7.35982 18.9659H15.1549C15.566 20.1215 16.6694 20.9489 17.9661 20.9489C19.6136 20.9489 20.9491 19.6134 20.9491 17.9659C20.9491 16.3185 19.6136 14.983 17.9661 14.983C16.6694 14.983 15.566 15.8103 15.1549 16.9659H7.35982C6.746 16.9659 6.15732 16.7221 5.72328 16.2881C5.28925 15.854 5.04541 15.2653 5.04541 14.6515C5.04541 14.0377 5.28925 13.449 5.72328 13.015C6.15732 12.581 6.746 12.3371 7.35982 12.3371H15.3144C16.2828 12.3371 17.2116 11.9524 17.8964 11.2676C18.5812 10.5828 18.9659 9.65403 18.9659 8.68558C18.9659 7.71714 18.5812 6.78836 17.8964 6.10356C17.2116 5.41877 16.2828 5.03406 15.3144 5.03406H7.35982ZM16.9746 18.0404C16.9764 18.0158 16.9773 17.991 16.9773 17.9659C16.9773 17.9409 16.9764 17.916 16.9746 17.8915C17.0126 17.3771 17.442 16.9716 17.9661 16.9716C18.5153 16.9716 18.9604 17.4168 18.9604 17.9659C18.9604 18.5151 18.5153 18.9603 17.9661 18.9603C17.442 18.9603 17.0126 18.5548 16.9746 18.0404Z" fill="currentColor"/>
</svg>
