<svg viewBox="0 0 24 24" fill="none" xmlns="http://www.w3.org/2000/svg">
<g clip-path="url(#clip0_821_12693)">
<path fill-rule="evenodd" clip-rule="evenodd" d="M16.8709 4.96411C17.3581 4.70404 17.9639 4.88818 18.2239 5.3754L21.0172 10.6083C21.2772 11.0956 21.0931 11.7014 20.6059 11.9614C20.1186 12.2215 19.5128 12.0373 19.2528 11.5501L18.479 10.1005L18.2256 10.6295L18.2161 10.6488L15.5642 15.8925C15.394 16.229 15.0489 16.4412 14.6718 16.4412H7.88401C7.871 18.4179 6.26451 20.0163 4.2847 20.0163C2.29681 20.0163 0.685303 18.4048 0.685303 16.4169V14.7133H0.687744V12.0405C0.687744 9.83134 2.47861 8.04047 4.68775 8.04048L10.7056 8.04048C11.2579 8.04048 11.7056 8.4882 11.7056 9.04048V14.4412H14.0569L16.4265 9.75577L17.3103 7.91099L16.4596 6.31719C16.1995 5.82997 16.3836 5.22417 16.8709 4.96411ZM2.68548 16.4412C2.69842 17.3133 3.40946 18.0163 4.2847 18.0163C5.15994 18.0163 5.87098 17.3133 5.88391 16.4412H2.68548ZM18.8013 16.4169C18.8013 15.5336 19.5173 14.8176 20.4007 14.8176C21.284 14.8176 22.0001 15.5336 22.0001 16.4169C22.0001 17.3003 21.284 18.0163 20.4007 18.0163C19.5173 18.0163 18.8013 17.3003 18.8013 16.4169ZM20.4007 12.8176C18.4128 12.8176 16.8013 14.4291 16.8013 16.4169C16.8013 18.4048 18.4128 20.0163 20.4007 20.0163C22.3886 20.0163 24.0001 18.4048 24.0001 16.4169C24.0001 14.4291 22.3886 12.8176 20.4007 12.8176ZM9.70563 10.0405V14.4412H2.68774V12.0405C2.68774 10.9359 3.58318 10.0405 4.68775 10.0405L9.70563 10.0405Z" fill="currentColor"/>
</g>
<defs>
<clipPath id="clip0_821_12693">
<rect fill="white"/>
</clipPath>
</defs>
</svg>
