<svg width="20" height="21" viewBox="0 0 20 21" fill="none" xmlns="http://www.w3.org/2000/svg">
<g id="SlidersHorizontal">
<path id="Vector" d="M11.3018 13.5307L3.12494 13.5307" stroke="black" stroke-width="2" stroke-linecap="round" stroke-linejoin="round"/>
<path id="Vector_2" d="M16.875 13.5307L14.9478 13.5307" stroke="black" stroke-width="2" stroke-linecap="round" stroke-linejoin="round"/>
<path id="Vector_3" d="M6.30182 6.65571L3.12494 6.65564" stroke="black" stroke-width="2" stroke-linecap="round" stroke-linejoin="round"/>
<path id="Vector_4" d="M16.875 6.65561L9.94781 6.65568" stroke="black" stroke-width="2" stroke-linecap="round" stroke-linejoin="round"/>
<path id="Vector_5" d="M8.12489 8.47879C9.13171 8.47879 9.9479 7.6626 9.9479 6.65578C9.9479 5.64895 9.13171 4.83276 8.12489 4.83276C7.11807 4.83276 6.30188 5.64895 6.30188 6.65578C6.30188 7.6626 7.11807 8.47879 8.12489 8.47879Z" stroke="black" stroke-width="2" stroke-linecap="round" stroke-linejoin="round"/>
<path id="Vector_6" d="M13.125 15.3538C14.1318 15.3538 14.948 14.5376 14.948 13.5307C14.948 12.5239 14.1318 11.7077 13.125 11.7077C12.1182 11.7077 11.302 12.5239 11.302 13.5307C11.302 14.5376 12.1182 15.3538 13.125 15.3538Z" stroke="black" stroke-width="2" stroke-linecap="round" stroke-linejoin="round"/>
</g>
</svg>
