<svg aria-hidden="true" width="21" height="20" role="status" class="inline w-4 h-4 me-3 text-white animate-spin" viewBox="0 0 21 20" fill="none"  width="100%" height="100%" xmlns="http://www.w3.org/2000/svg">
<path fill-rule="evenodd" clip-rule="evenodd" d="M9.35641 1.98411C9.55825 2.6443 9.18668 3.34312 8.52649 3.54496C7.40853 3.88675 6.39851 4.51304 5.59533 5.36248C4.79215 6.21193 4.22335 7.25542 3.94464 8.39075C3.66593 9.52608 3.68686 10.7143 4.00538 11.8391C4.3239 12.964 4.9291 13.9868 5.7617 14.8074C6.59429 15.628 7.62575 16.2184 8.75506 16.5206C9.88436 16.8228 11.0728 16.8265 12.204 16.5314C13.3352 16.2363 14.3703 15.6524 15.208 14.8371C16.0458 14.0217 16.6574 13.0027 16.9829 11.8799C17.1752 11.2168 17.8686 10.8352 18.5316 11.0275C19.1947 11.2197 19.5763 11.9131 19.384 12.5761C18.9379 14.1148 18.0998 15.5112 16.9517 16.6285C15.8037 17.7459 14.3852 18.546 12.8351 18.9504C11.2849 19.3548 9.65635 19.3497 8.10878 18.9356C6.56121 18.5215 5.14774 17.7125 4.00677 16.5879C2.8658 15.4633 2.03646 14.0617 1.59997 12.5203C1.16347 10.9789 1.13479 9.35055 1.51673 7.79473C1.89866 6.2389 2.67813 4.80894 3.77878 3.64488C4.87943 2.48082 6.26354 1.62258 7.79556 1.15419C8.45575 0.952353 9.15457 1.32392 9.35641 1.98411Z" fill="currentColor"/>
</svg>