<svg viewBox="0 0 24 24" fill="none" xmlns="http://www.w3.org/2000/svg">
<path fill-rule="evenodd" clip-rule="evenodd" d="M16 6.5H19C19.7956 6.5 20.5587 6.81607 21.1213 7.37868C21.6839 7.94129 22 8.70435 22 9.5V11.3867C21.3999 10.9308 20.7263 10.5667 20 10.3152V9.5C20 9.23478 19.8946 8.98043 19.7071 8.79289C19.5196 8.60536 19.2652 8.5 19 8.5H5C4.73478 8.5 4.48043 8.60536 4.29289 8.79289C4.10536 8.98043 4 9.23478 4 9.5V11.5H13.1297C12.4535 12.0414 11.8767 12.7021 11.4313 13.45H9V14.5C9 14.7652 8.89464 15.0196 8.70711 15.2071C8.51957 15.3946 8.26522 15.5 8 15.5C7.73478 15.5 7.48043 15.3946 7.29289 15.2071C7.10536 15.0196 7 14.7652 7 14.5V13.45H4V18.5C4 18.7652 4.10536 19.0196 4.29289 19.2071C4.48043 19.3946 4.73478 19.5 5 19.5H10.8148C11.0662 20.2262 11.4303 20.8999 11.8862 21.5H5C4.20435 21.5 3.44129 21.1839 2.87868 20.6213C2.31607 20.0587 2 19.2956 2 18.5V9.5C2 8.70435 2.31607 7.94129 2.87868 7.37868C3.44129 6.81607 4.20435 6.5 5 6.5H8V5.5C8 4.70435 8.31607 3.94129 8.87868 3.37868C9.44129 2.81607 10.2044 2.5 11 2.5H13C13.7956 2.5 14.5587 2.81607 15.1213 3.37868C15.6839 3.94129 16 4.70435 16 5.5V6.5ZM10.2929 4.79289C10.1054 4.98043 10 5.23478 10 5.5V6.5H14V5.5C14 5.23478 13.8946 4.98043 13.7071 4.79289C13.5196 4.60536 13.2652 4.5 13 4.5H11C10.7348 4.5 10.4804 4.60536 10.2929 4.79289Z" fill="currentColor" fill-opacity="0.5"/>
<path d="M17.6376 11.1227C14.302 11.1227 11.6226 13.8022 11.6226 17.1378C11.6226 20.4734 14.302 23.1528 17.6376 23.1528C20.9732 23.1528 23.6527 20.4734 23.6527 17.1378C23.6527 13.8022 20.9732 11.1227 17.6376 11.1227ZM17.349 19.6935C17.0564 19.993 16.5755 19.9958 16.2794 19.6998L14.3293 17.7497C14.0122 17.4326 14.0122 16.9184 14.3293 16.6013C14.6464 16.2842 15.1606 16.2842 15.4777 16.6013L16.7627 17.8864L19.6848 14.9642C20.0038 14.6453 20.5209 14.6453 20.8399 14.9642C21.1562 15.2806 21.1592 15.7925 20.8467 16.1125L17.349 19.6935Z" fill="#17AC44"/>
</svg>
