<svg viewBox="0 0 24 24" fill="none" xmlns="http://www.w3.org/2000/svg">
<path fill-rule="evenodd" clip-rule="evenodd" d="M5.75562 6.5556C5.75562 6.00332 6.20333 5.5556 6.75562 5.5556L7.8901 5.5556C8.44238 5.5556 8.8901 6.00332 8.8901 6.5556C8.8901 7.10789 8.44238 7.5556 7.8901 7.5556H6.75562C6.20333 7.5556 5.75562 7.10789 5.75562 6.5556Z" fill="currentColor"/>
<path fill-rule="evenodd" clip-rule="evenodd" d="M5.75562 10.1621C5.75562 9.60979 6.20333 9.16208 6.75562 9.16208L7.8901 9.16208C8.44238 9.16208 8.8901 9.60979 8.8901 10.1621C8.8901 10.7144 8.44238 11.1621 7.8901 11.1621H6.75562C6.20333 11.1621 5.75562 10.7144 5.75562 10.1621Z" fill="currentColor"/>
<path fill-rule="evenodd" clip-rule="evenodd" d="M5.75562 13.7686C5.75562 13.2163 6.20333 12.7686 6.75562 12.7686L7.8901 12.7686C8.44238 12.7686 8.8901 13.2163 8.8901 13.7686C8.8901 14.3208 8.44238 14.7686 7.8901 14.7686H6.75562C6.20333 14.7686 5.75562 14.3208 5.75562 13.7686Z" fill="currentColor"/>
<path fill-rule="evenodd" clip-rule="evenodd" d="M5.75562 17.375C5.75562 16.8227 6.20333 16.375 6.75562 16.375L7.8901 16.375C8.44238 16.375 8.8901 16.8227 8.8901 17.375C8.8901 17.9273 8.44238 18.375 7.8901 18.375H6.75562C6.20333 18.375 5.75562 17.9273 5.75562 17.375Z" fill="currentColor"/>
<path fill-rule="evenodd" clip-rule="evenodd" d="M10.6279 6.5556C10.6279 6.00332 11.0756 5.5556 11.6279 5.5556L12.7624 5.5556C13.3147 5.5556 13.7624 6.00332 13.7624 6.5556C13.7624 7.10789 13.3147 7.5556 12.7624 7.5556H11.6279C11.0756 7.5556 10.6279 7.10789 10.6279 6.5556Z" fill="currentColor"/>
<path fill-rule="evenodd" clip-rule="evenodd" d="M10.5109 10.1621C10.5109 9.60979 10.9586 9.16208 11.5109 9.16208L12.6453 9.16208C13.1976 9.16208 13.6453 9.60979 13.6453 10.1621C13.6453 10.7144 13.1976 11.1621 12.6453 11.1621H11.5109C10.9586 11.1621 10.5109 10.7144 10.5109 10.1621Z" fill="currentColor"/>
<path fill-rule="evenodd" clip-rule="evenodd" d="M2.87222 2.3543C3.29683 2.10662 3.80626 1.99841 4.28523 1.99841H15.2138C15.6928 1.99841 16.2022 2.10662 16.6268 2.3543C17.037 2.59361 17.4995 3.05865 17.4995 3.74841V10.6236C17.4995 11.1759 17.0518 11.6236 16.4995 11.6236C15.9472 11.6236 15.4995 11.1759 15.4995 10.6236V4.03497C15.427 4.01472 15.3299 3.99841 15.2138 3.99841H4.28523C4.16909 3.99841 4.07207 4.01472 3.99951 4.03497V20.9984C3.99951 21.5507 3.5518 21.9984 2.99951 21.9984C2.44723 21.9984 1.99951 21.5507 1.99951 20.9984V3.74841C1.99951 3.05865 2.46199 2.5936 2.87222 2.3543ZM3.86948 4.08858C3.86946 4.08857 3.86986 4.08826 3.87071 4.08766L3.86948 4.08858ZM15.6295 4.08858C15.6295 4.08859 15.6291 4.08829 15.6283 4.08766L15.6295 4.08858Z" fill="currentColor"/>
<path fill-rule="evenodd" clip-rule="evenodd" d="M16.5 13.9179C17.0523 13.9179 17.5 14.3656 17.5 14.9179V16.375H18.977C19.5293 16.375 19.977 16.8227 19.977 17.375C19.977 17.9273 19.5293 18.375 18.977 18.375H16.5C15.9477 18.375 15.5 17.9273 15.5 17.375V14.9179C15.5 14.3656 15.9477 13.9179 16.5 13.9179Z" fill="currentColor"/>
<path fill-rule="evenodd" clip-rule="evenodd" d="M16.5 12.75C13.9457 12.75 11.875 14.8207 11.875 17.375C11.875 19.9293 13.9457 22 16.5 22C19.0543 22 21.125 19.9293 21.125 17.375C21.125 14.8207 19.0543 12.75 16.5 12.75ZM9.875 17.375C9.875 13.7161 12.8411 10.75 16.5 10.75C20.1589 10.75 23.125 13.7161 23.125 17.375C23.125 21.0339 20.1589 24 16.5 24C12.8411 24 9.875 21.0339 9.875 17.375Z" fill="currentColor"/>
</svg>
