<svg viewBox="0 0 24 24" fill="none"  width="100%" height="100%" xmlns="http://www.w3.org/2000/svg">
<path fill-rule="evenodd" clip-rule="evenodd" d="M5.99994 4C5.46951 4 4.9608 4.21071 4.58573 4.58579C4.21065 4.96086 3.99994 5.46957 3.99994 6V9C3.99994 9.53043 4.21065 10.0391 4.58573 10.4142C4.9608 10.7893 5.46951 11 5.99994 11H8.99994C9.53037 11 10.0391 10.7893 10.4142 10.4142C10.7892 10.0391 10.9999 9.53043 10.9999 9V6C10.9999 5.46957 10.7892 4.96086 10.4142 4.58579C10.0391 4.21071 9.53037 4 8.99994 4H5.99994ZM5.99994 6H8.99994V9H5.99994V6ZM13.9999 6C13.7347 6 13.4804 6.10536 13.2928 6.29289C13.1053 6.48043 12.9999 6.73478 12.9999 7C12.9999 7.26522 13.1053 7.51957 13.2928 7.70711C13.4804 7.89464 13.7347 8 13.9999 8H18.9999C19.2652 8 19.5195 7.89464 19.707 7.70711C19.8946 7.51957 19.9999 7.26522 19.9999 7C19.9999 6.73478 19.8946 6.48043 19.707 6.29289C19.5195 6.10536 19.2652 6 18.9999 6H13.9999ZM13.9999 15C13.7347 15 13.4804 15.1054 13.2928 15.2929C13.1053 15.4804 12.9999 15.7348 12.9999 16C12.9999 16.2652 13.1053 16.5196 13.2928 16.7071C13.4804 16.8946 13.7347 17 13.9999 17H18.9999C19.2652 17 19.5195 16.8946 19.707 16.7071C19.8946 16.5196 19.9999 16.2652 19.9999 16C19.9999 15.7348 19.8946 15.4804 19.707 15.2929C19.5195 15.1054 19.2652 15 18.9999 15H13.9999ZM3.99994 15C3.99994 14.4696 4.21065 13.9609 4.58573 13.5858C4.9608 13.2107 5.46951 13 5.99994 13H8.99994C9.53037 13 10.0391 13.2107 10.4142 13.5858C10.7892 13.9609 10.9999 14.4696 10.9999 15V18C10.9999 18.5304 10.7892 19.0391 10.4142 19.4142C10.0391 19.7893 9.53037 20 8.99994 20H5.99994C5.46951 20 4.9608 19.7893 4.58573 19.4142C4.21065 19.0391 3.99994 18.5304 3.99994 18V15ZM8.99994 15H5.99994V18H8.99994V15Z" fill="currentColor"/>
</svg>
