<svg viewBox="0 0 24 24" fill="none" xmlns="http://www.w3.org/2000/svg">
<path fill-rule="evenodd" clip-rule="evenodd" d="M15.9376 6.22552C15.5481 6.22552 15.1739 6.28292 14.8219 6.38903C14.2931 6.54844 13.7352 6.24901 13.5758 5.72023C13.4164 5.19145 13.7158 4.63357 14.2446 4.47416C14.7818 4.31221 15.3505 4.22552 15.9376 4.22552C19.173 4.22552 21.7957 6.84831 21.7957 10.0837C21.7957 11.9493 20.9236 13.6113 19.5648 14.6841C21.1914 15.379 22.5787 16.5249 23.5694 17.9632C23.8826 18.4181 23.7679 19.0407 23.313 19.354C22.8582 19.6673 22.2355 19.5525 21.9222 19.0977C20.608 17.1895 18.4107 15.9418 15.9226 15.9417C15.3772 15.9337 14.9376 15.4891 14.9376 14.9418C14.9376 14.3946 15.3776 13.9498 15.9229 13.9418L15.9376 13.9418L15.9477 13.9418C18.0738 13.9364 19.7957 12.2111 19.7957 10.0837C19.7957 7.95288 18.0684 6.22552 15.9376 6.22552ZM14.125 10.125C14.125 11.9985 13.2481 13.6671 11.8823 14.7429C12.096 14.8341 12.3067 14.9336 12.5137 15.0411C13.831 15.7251 14.9643 16.7161 15.818 17.9302C16.1357 18.382 16.027 19.0058 15.5752 19.3235C15.1234 19.6411 14.4997 19.5324 14.182 19.0806C13.5128 18.1289 12.6245 17.3522 11.592 16.816C10.5595 16.2799 9.41308 16 8.24971 16C7.0863 16 5.93997 16.28 4.90751 16.8163C3.87505 17.3525 2.98677 18.1293 2.31766 19.0811C2.00003 19.5329 1.37628 19.6416 0.924474 19.324C0.472668 19.0064 0.363897 18.3826 0.681528 17.9308C1.53517 16.7166 2.66844 15.7255 3.98565 15.0414C4.19289 14.9337 4.40373 14.8342 4.61768 14.7429C3.25191 13.6671 2.375 11.9985 2.375 10.125C2.375 6.88033 5.00533 4.25 8.25 4.25C11.4947 4.25 14.125 6.88033 14.125 10.125ZM8.25 6.25C6.1099 6.25 4.375 7.9849 4.375 10.125C4.375 12.265 6.11006 13.9998 8.25 14C10.3901 14 12.125 12.2651 12.125 10.125C12.125 7.9849 10.3901 6.25 8.25 6.25Z" fill="currentColor"/>
</svg>
