<svg viewBox="0 0 24 24" fill="none" xmlns="http://www.w3.org/2000/svg">
<path d="M20.3097 3.69032H3.69035C2.67472 3.69032 1.84375 4.52129 1.84375 5.53692V16.6165C1.84375 17.6321 2.67472 18.4631 3.69035 18.4631H8.30684V19.3864C8.30684 19.8942 8.72232 20.3097 9.23013 20.3097H14.7699C15.2777 20.3097 15.6932 19.8942 15.6932 19.3864V18.4631H20.3097C21.3253 18.4631 22.1471 17.6321 22.1471 16.6165L22.1563 5.53692C22.1563 4.51206 21.3253 3.69032 20.3097 3.69032ZM19.3864 16.6165H4.61364C4.10583 16.6165 3.69035 16.201 3.69035 15.6932V6.46022C3.69035 5.9524 4.10583 5.53692 4.61364 5.53692H19.3864C19.8942 5.53692 20.3097 5.9524 20.3097 6.46022V15.6932C20.3097 16.201 19.8942 16.6165 19.3864 16.6165ZM14.2898 11.88L10.6151 13.9851C9.99647 14.3359 9.23013 13.8835 9.23013 13.1818V8.97159C9.23013 8.26065 9.99647 7.81747 10.6151 8.16832L14.2898 10.2734C14.9084 10.6335 14.9084 11.5199 14.2898 11.88Z" fill="currentColor"/>
</svg>
