<svg viewBox="0 0 24 24" fill="none"  width="100%" height="100%" xmlns="http://www.w3.org/2000/svg">
<path fill-rule="evenodd" clip-rule="evenodd" d="M13.3237 22.0586C12.89 22.1152 12.4482 22.1443 12 22.1443C6.39747 22.1443 1.85571 17.6025 1.85571 12C1.85571 6.39747 6.39747 1.85572 12 1.85571C12.4482 1.85571 12.89 1.88484 13.3237 1.9414C13.8713 2.01284 14.2574 2.5147 14.1859 3.06235C14.1145 3.60999 13.6126 3.99604 13.065 3.9246C12.7169 3.87919 12.3614 3.85571 12 3.85571C7.50204 3.85572 3.85571 7.50204 3.85571 12C3.85571 16.498 7.50204 20.1443 12 20.1443C12.3614 20.1443 12.7169 20.1208 13.065 20.0754C13.6126 20.004 14.1145 20.39 14.1859 20.9377C14.2574 21.4853 13.8713 21.9872 13.3237 22.0586ZM16.774 19.8644C16.4375 19.4265 16.5197 18.7987 16.9576 18.4622C17.5221 18.0283 18.0283 17.5221 18.4622 16.9576C18.7987 16.5197 19.4265 16.4375 19.8644 16.774C20.3023 17.1105 20.3845 17.7383 20.048 18.1762C19.5082 18.8786 18.8786 19.5082 18.1762 20.048C17.7383 20.3845 17.1105 20.3023 16.774 19.8644ZM16.774 4.1356C17.1105 3.69769 17.7383 3.61549 18.1762 3.95201C18.8786 4.49177 19.5082 5.12139 20.048 5.82378C20.3845 6.26169 20.3023 6.8895 19.8644 7.22602C19.4265 7.56254 18.7987 7.48035 18.4622 7.04243C18.0283 6.47787 17.5221 5.97169 16.9576 5.53785C16.5197 5.20133 16.4375 4.57352 16.774 4.1356ZM20.9377 14.1859C20.39 14.1145 20.004 13.6126 20.0754 13.065C20.1208 12.7169 20.1443 12.3614 20.1443 12C20.1443 11.6386 20.1208 11.2831 20.0754 10.935C20.004 10.3874 20.39 9.88551 20.9377 9.81407C21.4853 9.74264 21.9872 10.1287 22.0586 10.6763C22.1152 11.11 22.1443 11.5518 22.1443 12C22.1443 12.4482 22.1152 12.89 22.0586 13.3237C21.9872 13.8713 21.4853 14.2574 20.9377 14.1859ZM11.8252 8.95198C11.8252 8.43448 12.2447 8.01496 12.7622 8.01496C13.2797 8.01496 13.6992 8.43448 13.6992 8.95198V13.5241C13.6992 14.0416 13.2797 14.4612 12.7622 14.4612L12.7607 14.4612H9.71388C9.19638 14.4612 8.77686 14.0416 8.77686 13.5241C8.77686 13.0066 9.19638 12.5871 9.71388 12.5871H11.8252V8.95198Z" fill="currentColor"/>
</svg>
