<svg width="189" height="55" viewBox="0 0 189 55" fill="none" xmlns="http://www.w3.org/2000/svg">
<path d="M27.469 0C15.4323 0 8.74096 0 4.3705 4.37046C3.92643e-05 8.74092 0 15.146 0 27.1827C0 39.2194 0 45.7201 4.3705 50.0905C8.741 54.461 15.4323 54.461 27.469 54.461C39.5057 54.461 46.197 54.461 50.5675 50.0905C54.938 45.7201 54.938 39.2194 54.938 27.1827C54.938 15.146 54.938 8.74092 50.5675 4.37046C46.197 0 39.5057 0 27.469 0ZM36.3309 19.675C36.2677 18.5821 35.8256 17.9553 35.1184 17.9553C34.4222 17.9553 33.969 18.5944 33.9061 19.6689L33.904 19.7227C33.8442 21.2553 33.5375 29.0343 33.3828 31.6634C33.1674 35.3217 30.7092 37.8765 27.405 37.8765C24.1008 37.8765 21.6425 35.3217 21.4275 31.6634C21.2728 29.0353 20.966 21.2562 20.9061 19.7234L20.9038 19.665C20.8407 18.5946 20.3874 17.9553 19.6919 17.9553C18.9839 17.9553 18.542 18.5821 18.4794 19.6748C18.3423 21.9978 17.7754 35.436 17.6052 39.4993C17.5642 40.4677 16.771 41.2263 15.7991 41.2263H14.6371C14.1387 41.2263 13.6748 41.0287 13.3308 40.6701C12.9883 40.3126 12.8106 39.8424 12.8313 39.3467C13.0522 34.1095 13.5799 21.6818 13.7141 19.3956C13.9291 15.7376 16.3875 13.1828 19.6919 13.1828C22.9963 13.1828 25.4543 15.7376 25.6693 19.3956C25.8241 22.0336 26.1308 29.8022 26.1908 31.3328L26.1931 31.3935C26.2549 32.4645 26.7081 33.1038 27.405 33.1038C28.1019 33.1038 28.5549 32.4645 28.6168 31.3904L28.6233 31.234C28.7315 28.4806 28.9985 21.8158 29.141 19.3957C29.3556 15.7377 31.8136 13.1828 35.1184 13.1828C38.4231 13.1828 40.8807 15.7377 41.0957 19.3957C41.1899 20.998 41.4781 27.6024 41.7032 32.8611C41.7226 33.3106 41.5617 33.7372 41.2504 34.0619C40.9391 34.3868 40.5198 34.5658 40.0695 34.5658H38.5639C37.6853 34.5658 36.9677 33.8789 36.9301 33.0022C36.708 27.7908 36.4233 21.2484 36.3309 19.675L36.3309 19.675ZM41.3648 40.7798C41.0386 41.0678 40.5899 41.2263 40.1017 41.2263H39.0108C38.0388 41.2263 37.2457 40.4677 37.2051 39.4989L37.1467 38.1151C37.128 37.6653 37.2892 37.2385 37.6011 36.9133C37.9124 36.5886 38.3313 36.4099 38.7807 36.4099H40.2871C41.1659 36.4099 41.8837 37.0988 41.9212 37.9782L41.9788 39.3467C42.0018 39.901 41.7841 40.4103 41.3648 40.7798H41.3648ZM92.8478 12.9741H71.1523V17.9534H78.7789V41.2301H85.2212V17.9534H92.8478V12.9741ZM180.978 28.3866C177.975 27.9518 176.986 27.4379 176.986 26.1339C176.986 24.8693 178.053 23.9999 179.911 23.9999C181.887 23.9999 182.835 24.7902 183.151 26.4896H188.407C187.893 21.7472 184.456 20.0876 179.871 20.0876C175.643 20.0876 171.691 22.2216 171.691 26.5291C171.691 30.5601 173.824 32.1408 179.318 32.9707C182.282 33.4053 183.507 33.9983 183.507 35.4208C183.507 36.8434 182.48 37.6735 180.266 37.6735C177.777 37.6735 176.868 36.6065 176.63 34.749H171.295C171.493 39.2148 174.734 41.6649 180.306 41.6649C185.76 41.6649 189 39.3333 189 34.8677C189 30.4415 186.155 29.1373 180.978 28.3866L180.978 28.3866ZM161.406 20.0876C158.797 20.0876 156.11 21.1941 154.45 23.6838C153.462 21.2337 151.407 20.0876 148.68 20.0876C145.598 20.0876 143.385 21.7868 142.358 23.7232V20.5617H136.627L136.627 41.2301H142.358V29.0188C142.358 26.2129 144.136 24.7902 146.349 24.7902C148.364 24.7902 149.589 25.9757 149.589 28.6236V41.2301H155.28V29.0188C155.28 26.2129 157.058 24.7902 159.271 24.7902C161.327 24.7902 162.512 25.9757 162.512 28.6236V41.2301H168.203V27.9912C168.203 22.4983 165.239 20.0876 161.406 20.0876H161.406ZM123.671 20.0876C118.612 20.0876 114.74 22.2611 114.384 27.1613H119.798C120.035 25.3832 121.062 24.2371 123.315 24.2371C125.923 24.2371 126.674 25.5808 126.674 28.0309V28.8607H124.343C118.019 28.8607 113.593 30.6786 113.593 35.5001C113.593 39.847 116.755 41.665 120.509 41.665C123.75 41.665 125.567 40.4004 126.753 38.7404V41.2301H132.325V27.7542C132.325 22.1425 128.729 20.0876 123.671 20.0876H123.671ZM126.674 33.9983C126.674 36.2903 124.738 37.6736 122.208 37.6736C120.114 37.6736 119.205 36.6857 119.205 35.1838C119.205 32.9708 121.141 32.2595 124.461 32.2595H126.674V33.9983ZM101.458 20.0876C95.4511 20.0876 90.8278 24.3162 90.8278 30.8368V31.1529C90.8278 37.7527 95.3719 41.665 101.616 41.665C107.267 41.665 110.824 39.1752 111.496 34.7096H106.082C105.726 36.4485 104.422 37.5945 101.775 37.5945C98.6525 37.5945 96.7948 35.6185 96.6369 32.1804H111.536V30.5996C111.536 23.2094 106.793 20.0876 101.458 20.0876L101.458 20.0876ZM96.7161 28.6631C97.1505 25.7387 98.8896 24.0395 101.458 24.0395C104.185 24.0395 105.765 25.5411 105.963 28.6631H96.7161Z" fill="white"/>
</svg>
