<svg width="180" height="51" viewBox="0 0 180 51" fill="none" xmlns="http://www.w3.org/2000/svg">
<path d="M25.4949 50.7737C36.6666 50.7737 42.8771 50.7737 46.9334 46.7174C50.9897 42.661 50.9897 36.6276 50.9897 25.4559C50.9897 14.2842 50.9897 8.33926 46.9334 4.28291C42.8771 0.226562 36.6666 0.226562 25.4948 0.226562C14.3232 0.226562 8.11266 0.226562 4.05631 4.28287C0 8.33922 0 14.2842 0 25.4559C0 36.6276 0 42.661 4.05631 46.7174C8.11266 50.7737 14.3232 50.7737 25.4948 50.7737H25.4949Z" fill="#FFA800"/>
<path d="M32.5932 16.8925C33.2496 16.8925 33.6599 17.4743 33.7186 18.4885C33.8045 19.9489 34.0686 26.0211 34.2749 30.858C34.3097 31.6718 34.9756 32.3093 35.7911 32.3093H37.1886C37.6065 32.3093 37.9956 32.1432 38.2846 31.8415C38.5736 31.5402 38.7229 31.1444 38.705 30.7271C38.4959 25.8464 38.2286 19.7165 38.1411 18.2294C37.9415 14.8341 35.6602 12.4629 32.5932 12.4629C29.5263 12.4629 27.2447 14.8341 27.0454 18.2294C26.9133 20.4754 26.6653 26.6613 26.5649 29.2169L26.559 29.3621C26.5015 30.3589 26.0809 30.9524 25.4343 30.9524C24.7876 30.9524 24.3668 30.3589 24.3094 29.3649L24.3072 29.3087C24.2516 27.8881 23.967 20.6776 23.8232 18.2294C23.6236 14.8341 21.3423 12.4629 18.2753 12.4629C15.2084 12.4629 12.9268 14.8341 12.7272 18.2294C12.6026 20.3512 12.1128 31.8859 11.9077 36.7466C11.8887 37.2068 12.0534 37.6431 12.3715 37.975C12.6908 38.3079 13.1214 38.4912 13.5839 38.4912H14.6624C15.5644 38.4912 16.3006 37.7871 16.3386 36.8883C16.4967 33.117 17.0229 20.6445 17.15 18.4884C17.2082 17.4743 17.6182 16.8925 18.2753 16.8925C18.921 16.8925 19.3416 17.4857 19.4003 18.4793L19.4024 18.5337C19.458 19.9562 19.7426 27.1761 19.8862 29.6156C20.0858 33.0109 22.3673 35.3821 25.4343 35.3821C28.5012 35.3821 30.7826 33.0108 30.9824 29.6156C31.1259 27.1755 31.4106 19.9554 31.4662 18.533L31.4681 18.4829C31.5265 17.4858 31.9471 16.8926 32.5932 16.8926L32.5932 16.8925Z" fill="#111111"/>
<path d="M38.9092 35.4776C38.8744 34.6614 38.2082 34.022 37.3925 34.022H35.9944C35.5773 34.022 35.1885 34.1879 34.8995 34.4893C34.61 34.7911 34.4605 35.1872 34.4779 35.6047L34.532 36.8891C34.5697 37.7882 35.3058 38.4923 36.208 38.4923H37.2204C37.6736 38.4923 38.09 38.3452 38.3927 38.0779C38.7819 37.7348 38.9841 37.2622 38.9626 36.7477L38.9092 35.4776H38.9092Z" fill="#111111"/>
<path d="M109.303 38.4909H114.584V10.6182H109.303V38.4909ZM100.167 38.4909H105.448V19.3104H100.167V38.4909ZM82.5589 28.5887L76.4343 12.2688H68.5859V38.4909H73.9038V20.0802L81.202 38.4909H83.1457L90.4073 20.0802V38.4909H96.3119V12.2689H88.6102L82.5589 28.5888V28.5887ZM102.789 10.9119C101.102 10.9119 99.7819 12.1585 99.7819 13.8091C99.7819 15.4598 101.102 16.7063 102.789 16.7063C104.513 16.7063 105.833 15.4592 105.833 13.8091C105.833 12.159 104.513 10.9119 102.789 10.9119V10.9119ZM174.468 33.9965C176.446 31.6583 177.557 28.548 177.557 24.9947V24.7015C177.557 16.8164 171.945 11.4985 164.06 11.4985C156.285 11.4985 150.564 17.0365 150.564 24.8481V25.1416C150.564 32.8062 155.809 38.4907 164.024 38.4907C164.036 38.4907 164.048 38.49 164.061 38.49V38.4907H180V33.7692L174.468 33.9965V33.9965ZM171.359 25.0681C171.359 30.3492 168.571 33.76 164.134 33.76C159.843 33.76 156.762 30.4592 156.762 25.1049V24.8114C156.762 19.5301 159.513 16.1929 164.06 16.1929C168.645 16.1929 171.359 19.6769 171.359 24.7749V25.0682V25.0681ZM142.268 38.4908H148.246V12.2689H142.268V38.4908ZM126.815 18.8701C121.24 18.8701 116.949 22.7941 116.949 28.8455V29.1389C116.949 35.2636 121.167 38.8942 126.961 38.8942C132.206 38.8942 135.506 36.5839 136.13 32.4396H131.106C130.775 34.0535 129.565 35.117 127.108 35.117C124.211 35.117 122.487 33.2831 122.34 30.0925H136.167V28.6255C136.167 21.7675 131.766 18.8701 126.815 18.8701H126.815ZM122.414 26.8284C122.817 24.1148 124.431 22.5373 126.815 22.5373C129.345 22.5373 130.812 23.9314 130.995 26.8284H122.414Z" fill="#111111"/>
</svg>
