<svg width="927" height="268" viewBox="0 0 927 268" fill="none" xmlns="http://www.w3.org/2000/svg">
<g clip-path="url(#clip0_2195_6121)">
<path d="M134.699 267.06C193.724 267.06 226.536 267.06 247.967 245.629C269.398 224.198 269.398 192.321 269.398 133.296C269.398 74.2719 269.398 42.8625 247.967 21.4313C226.536 0 193.724 0 134.699 0C75.6748 0 42.8623 0 21.4311 21.4311C0 42.8623 0 74.2717 0 133.296C0 192.321 0 224.198 21.4311 245.629C42.8623 267.06 75.6748 267.06 134.699 267.06H134.699Z" fill="#FFA800"/>
<path d="M172.21 88.0473C175.678 88.0473 177.846 91.1211 178.156 96.4799C178.609 104.196 180.005 136.278 181.095 161.832C181.279 166.132 184.797 169.5 189.105 169.5H196.489C198.697 169.5 200.753 168.623 202.28 167.029C203.807 165.437 204.595 163.345 204.501 161.141C203.396 135.354 201.984 102.968 201.521 95.1107C200.467 77.172 188.414 64.644 172.21 64.644C156.006 64.644 143.951 77.1722 142.898 95.1107C142.2 106.977 140.89 139.66 140.36 153.162L140.329 153.929C140.025 159.196 137.803 162.331 134.386 162.331C130.97 162.331 128.747 159.196 128.443 153.944L128.432 153.647C128.138 146.141 126.634 108.046 125.874 95.1107C124.82 77.172 112.767 64.644 96.5629 64.644C80.3589 64.644 68.3045 77.1722 67.2501 95.1107C66.5913 106.321 64.0038 167.263 62.9203 192.944C62.8196 195.376 63.69 197.681 65.3706 199.435C67.0574 201.193 69.3325 202.162 71.7763 202.162H77.4742C82.2398 202.162 86.1298 198.442 86.3302 193.693C87.1654 173.768 89.9456 107.871 90.617 96.479C90.9245 91.1213 93.0911 88.0475 96.5629 88.0475C99.9743 88.0475 102.196 91.1817 102.506 96.4311L102.518 96.7183C102.811 104.234 104.315 142.38 105.074 155.268C106.128 173.207 118.182 185.735 134.386 185.735C150.59 185.735 162.644 173.207 163.699 155.268C164.457 142.376 165.962 104.23 166.255 96.7147L166.265 96.4501C166.574 91.1819 168.796 88.0477 172.21 88.0477L172.21 88.0473Z" fill="black"/>
<path d="M205.569 186.234C205.385 181.921 201.865 178.543 197.555 178.543H190.168C187.965 178.543 185.91 179.42 184.384 181.012C182.854 182.607 182.064 184.699 182.156 186.905L182.442 193.691C182.641 198.442 186.53 202.162 191.297 202.162H196.646C199.041 202.162 201.24 201.384 202.84 199.972C204.896 198.159 205.964 195.663 205.851 192.944L205.568 186.234H205.569Z" fill="black"/>
<path d="M497.522 98.5032C468.064 98.5032 445.392 119.239 445.392 151.214V152.764C445.392 185.127 467.676 204.312 498.296 204.312C526.008 204.312 543.447 192.103 546.744 170.205H520.194C518.448 178.732 512.055 184.352 499.073 184.352C483.763 184.352 474.653 174.662 473.879 157.803H546.938V150.051C546.938 113.812 523.684 98.5033 497.522 98.5033L497.522 98.5032ZM474.267 140.555C476.397 126.215 484.925 117.882 497.522 117.882C510.892 117.882 518.643 125.246 519.613 140.555H474.267ZM455.299 63.6206H348.91V88.0376H386.309V202.18H417.9V88.0376H455.299V63.6206ZM887.462 139.199C872.735 137.067 867.889 134.547 867.889 128.152C867.889 121.951 873.12 117.688 882.231 117.688C891.92 117.688 896.569 121.563 898.12 129.897H923.893C921.374 106.641 904.517 98.5032 882.036 98.5032C861.301 98.5032 841.922 108.968 841.922 130.09C841.922 149.857 852.384 157.608 879.323 161.678C893.856 163.809 899.865 166.717 899.865 173.693C899.865 180.669 894.828 184.739 883.972 184.739C871.764 184.739 867.31 179.507 866.144 170.398H839.982C840.954 192.297 856.843 204.312 884.167 204.312C910.911 204.312 926.801 192.878 926.801 170.98C926.801 149.276 912.847 142.88 887.462 139.199L887.462 139.199ZM791.486 98.5032C778.696 98.5032 765.519 103.929 757.38 116.138C752.533 104.123 742.456 98.5032 729.085 98.5032C713.97 98.5032 703.118 106.836 698.08 116.331V100.828H669.979L669.98 202.18H698.081V142.299C698.081 128.54 706.799 121.563 717.651 121.563C727.534 121.563 733.543 127.377 733.543 140.361V202.18H761.45V142.299C761.45 128.54 770.168 121.563 781.02 121.563C791.098 121.563 796.913 127.377 796.913 140.361V202.18H824.82V137.26C824.82 110.324 810.283 98.5032 791.486 98.5032H791.486ZM606.444 98.5032C581.64 98.5032 562.649 109.161 560.904 133.191H587.454C588.616 124.471 593.653 118.851 604.7 118.851C617.491 118.851 621.171 125.44 621.171 137.455V141.524H609.741C578.732 141.524 557.029 150.438 557.029 174.082C557.029 195.398 572.533 204.312 590.941 204.312C606.833 204.312 615.746 198.111 621.56 189.971V202.18H648.884V136.098C648.884 108.58 631.25 98.5032 606.444 98.5032H606.444ZM621.171 166.717C621.171 177.956 611.677 184.74 599.274 184.74C589.005 184.74 584.547 179.895 584.547 172.531C584.547 161.678 594.042 158.191 610.32 158.191H621.171V166.717Z" fill="black"/>
</g>
<defs>
<clipPath id="clip0_2195_6121">
<rect width="926.8" height="267.06" fill="white"/>
</clipPath>
</defs>
</svg>
