<svg width="299" height="84" viewBox="0 0 299 84" fill="none" xmlns="http://www.w3.org/2000/svg">
<path d="M42.272 0C23.7487 0 13.4514 0 6.7257 6.7257C0 13.4514 0 23.3082 0 41.8315C0 60.3547 0 70.3586 6.7257 77.0843C13.4514 83.81 23.7487 83.81 42.272 83.81C60.7953 83.81 71.0925 83.81 77.8182 77.0843C84.5439 70.3586 84.5439 60.3548 84.5439 41.8315C84.5439 23.3082 84.5439 13.4514 77.8182 6.7257C71.0925 0 60.7953 0 42.272 0ZM55.9096 30.2778C55.8124 28.596 55.132 27.6314 54.0436 27.6314C52.9723 27.6314 52.2749 28.6149 52.178 30.2684L52.1747 30.3512C52.0828 32.7098 51.6108 44.6809 51.3727 48.7268C51.0413 54.3565 47.2584 58.2881 42.1735 58.2881C37.0887 58.2881 33.3055 54.3565 32.9747 48.7268C32.7366 44.6824 32.2646 32.7112 32.1724 30.3523L32.1688 30.2625C32.0716 28.6152 31.3742 27.6314 30.3038 27.6314C29.2142 27.6314 28.5342 28.596 28.4378 30.2775C28.2269 33.8524 27.3544 54.5324 27.0925 60.7855C27.0294 62.2758 25.8088 63.4431 24.3132 63.4431H22.525C21.758 63.4431 21.0441 63.1391 20.5147 62.5872C19.9876 62.0371 19.7141 61.3135 19.746 60.5506C20.086 52.4911 20.8981 33.3662 21.1046 29.848C21.4355 24.2186 25.2187 20.287 30.3038 20.287C35.3889 20.287 39.1715 24.2186 39.5023 29.848C39.7407 33.9074 40.2127 45.8627 40.3049 48.218L40.3085 48.3115C40.4037 49.9596 41.1011 50.9434 42.1735 50.9434C43.246 50.9434 43.9431 49.9596 44.0383 48.3067L44.0483 48.066C44.2148 43.8288 44.6258 33.5722 44.845 29.848C45.1753 24.2187 48.9578 20.287 54.0436 20.287C59.1293 20.287 62.9113 24.2187 63.2421 29.848C63.3871 32.3138 63.8305 42.4774 64.177 50.5699C64.2068 51.2617 63.9593 51.9181 63.4802 52.4178C63.0011 52.9178 62.3558 53.1933 61.6629 53.1933H59.3459C57.9938 53.1933 56.8895 52.1362 56.8317 50.787C56.4899 42.7673 56.0518 32.6992 55.9095 30.2779L55.9096 30.2778ZM63.6562 62.756C63.1542 63.1992 62.4638 63.4431 61.7125 63.4431H60.0336C58.5378 63.4431 57.3174 62.2758 57.2549 60.7849L57.1651 58.6552C57.1361 57.9631 57.3843 57.3064 57.8642 56.8058C58.3433 56.3061 58.988 56.0312 59.6795 56.0312H61.9977C63.3501 56.0312 64.4547 57.0913 64.5125 58.4446L64.6012 60.5506C64.6365 61.4036 64.3015 62.1874 63.6563 62.756H63.6562ZM136.887 47.025L126.733 19.9658H113.72V63.4434H122.537V32.9175L134.638 63.4435H137.86L149.9 32.9175V63.4435L159.691 63.4432V19.9658H146.921L136.887 47.0251V47.025ZM289.278 55.9915C292.557 52.1146 294.399 46.9573 294.399 41.066V40.5798C294.399 27.5058 285.095 18.6885 272.021 18.6885C259.13 18.6885 249.644 27.8709 249.644 40.8226V41.3096C249.644 54.0179 258.34 63.4431 271.961 63.4431C271.981 63.4431 272.001 63.4419 272.022 63.4419V63.4431H298.45V55.6146L289.278 55.9915ZM284.122 41.1877C284.122 49.944 279.5 55.5993 272.143 55.5993C265.028 55.5993 259.921 50.1264 259.921 41.2487V40.762C259.921 32.0054 264.481 26.4721 272.021 26.4721C279.622 26.4721 284.122 32.2487 284.122 40.7016V41.1877V41.1877ZM181.231 63.4431H189.987V17.2289H181.231V63.4431ZM235.888 63.4431H245.8V19.9658H235.888V63.4431ZM166.083 63.4431H174.839V31.6408H166.083V63.4431ZM210.266 30.911C201.023 30.911 193.908 37.4172 193.908 47.4508V47.9373C193.908 58.0923 200.901 64.112 210.509 64.112C219.205 64.112 224.677 60.2815 225.711 53.4099H217.38C216.833 56.0858 214.826 57.8492 210.752 57.8492C205.948 57.8492 203.09 54.8085 202.847 49.5183H225.772V47.086C225.772 35.7151 218.475 30.911 210.266 30.911H210.266ZM202.969 44.1064C203.638 39.607 206.313 36.9915 210.266 36.9915C214.461 36.9915 216.894 39.3029 217.198 44.1064H202.969ZM170.43 17.7159C167.633 17.7159 165.444 19.7828 165.444 22.5197C165.444 25.2565 167.633 27.3234 170.43 27.3234C173.288 27.3234 175.477 25.2556 175.477 22.5197C175.477 19.7837 173.288 17.7159 170.43 17.7159Z" fill="white"/>
</svg>
