<svg width="951" height="268" viewBox="0 0 951 268" fill="none" xmlns="http://www.w3.org/2000/svg">
<path d="M134.698 267.057C193.722 267.057 226.534 267.057 247.965 245.626C269.395 224.195 269.395 192.319 269.395 133.295C269.395 74.2711 269.395 42.8623 247.965 21.4312C226.534 0.000244141 193.721 0.000244141 134.698 0.000244141C75.6739 0.000244141 42.8618 0.000244141 21.4308 21.4311C0 42.8621 0 74.2711 0 133.295C0 192.319 0 224.195 21.4308 245.626C42.8618 267.057 75.6739 267.057 134.698 267.057H134.698Z" fill="#FFA800"/>
<path d="M172.208 88.0517C175.676 88.0517 177.844 91.1254 178.154 96.4842C178.607 104.2 180.003 136.281 181.093 161.836C181.277 166.135 184.795 169.504 189.103 169.504H196.487C198.695 169.504 200.751 168.626 202.277 167.032C203.804 165.44 204.593 163.349 204.498 161.144C203.393 135.358 201.981 102.972 201.519 95.115C200.465 77.1765 188.412 64.6487 172.208 64.6487C156.004 64.6487 143.95 77.1767 142.897 95.115C142.199 106.982 140.889 139.664 140.359 153.165L140.327 153.933C140.023 159.199 137.801 162.335 134.385 162.335C130.968 162.335 128.745 159.199 128.442 153.948L128.43 153.65C128.137 146.145 126.633 108.05 125.873 95.115C124.819 77.1765 112.766 64.6487 96.5619 64.6487C80.3581 64.6487 68.3039 77.1767 67.2494 95.115C66.5907 106.325 64.0032 167.267 62.9197 192.947C62.819 195.379 63.6894 197.684 65.3699 199.438C67.0568 201.196 69.3318 202.165 71.7756 202.165H77.4734C82.239 202.165 86.1289 198.445 86.3293 193.696C87.1645 173.771 89.9446 107.875 90.6161 96.4832C90.9235 91.1256 93.0901 88.0519 96.5619 88.0519C99.9732 88.0519 102.195 91.186 102.505 96.4353L102.516 96.7226C102.81 104.238 104.314 142.384 105.072 155.272C106.127 173.21 118.181 185.738 134.385 185.738C150.589 185.738 162.642 173.21 163.697 155.272C164.456 142.38 165.96 104.234 166.253 96.7189L166.263 96.4544C166.572 91.1862 168.794 88.0521 172.208 88.0521L172.208 88.0517Z" fill="black"/>
<path d="M205.566 186.242C205.382 181.93 201.863 178.551 197.553 178.551H190.166C187.963 178.551 185.908 179.428 184.382 181.02C182.852 182.615 182.063 184.707 182.154 186.913L182.44 193.699C182.639 198.449 186.528 202.169 191.295 202.169H196.644C199.038 202.169 201.238 201.392 202.838 199.98C204.893 198.167 205.962 195.67 205.848 192.952L205.566 186.242H205.566Z" fill="black"/>
<path d="M577.485 202.164H605.387V54.9026H577.485V202.164ZM529.216 202.164H557.118V100.827H529.216V202.164ZM436.187 149.847L403.828 63.6235H362.363V202.164H390.459V104.894L429.018 202.164H439.287L477.652 104.894V202.164H508.848V63.6237H468.158L436.187 149.847V149.847ZM543.071 56.4545C534.157 56.4545 527.181 63.0405 527.181 71.7614C527.181 80.4824 534.157 87.0684 543.071 87.0684C552.176 87.0684 559.152 80.4795 559.152 71.7614C559.152 63.0434 552.177 56.4545 543.071 56.4545ZM921.774 178.418C932.221 166.065 938.091 149.632 938.091 130.859V129.309C938.091 87.6497 908.445 59.5536 866.786 59.5536C825.707 59.5536 795.482 88.813 795.482 130.084V131.635C795.482 172.129 823.189 202.162 866.592 202.162C866.658 202.162 866.721 202.159 866.787 202.159V202.162H951V177.217L921.774 178.418V178.418ZM905.345 131.246C905.345 159.148 890.618 177.168 867.173 177.168C844.503 177.168 828.227 159.729 828.227 131.441V129.89C828.227 101.987 842.759 84.3556 866.786 84.3556C891.006 84.3556 905.345 102.763 905.345 129.697V131.247V131.246ZM751.649 202.163H783.232V63.6237H751.649V202.163ZM670.004 98.5001C640.552 98.5001 617.882 119.232 617.882 151.204V152.754C617.882 185.112 640.164 204.294 670.779 204.294C698.487 204.294 715.925 192.088 719.22 170.192H692.675C690.93 178.719 684.536 184.338 671.554 184.338C656.246 184.338 647.14 174.649 646.364 157.792H719.413V150.041C719.413 113.808 696.162 98.5001 670.004 98.5001H670.004ZM646.752 140.547C648.884 126.21 657.41 117.875 670.004 117.875C683.374 117.875 691.124 125.241 692.093 140.547H646.752Z" fill="black"/>
</svg>
