<svg width="388" height="384" viewBox="0 0 388 384" fill="none" xmlns="http://www.w3.org/2000/svg">
<path d="M193.626 384C278.471 384 325.638 384 356.445 353.185C387.251 322.369 387.251 276.534 387.251 191.664C387.251 106.794 387.251 61.6311 356.445 30.8156C325.638 0 278.471 0 193.625 0C108.78 0 61.6131 0 30.8064 30.8153C0 61.6308 0 106.794 0 191.664C0 276.534 0 322.369 30.8064 353.185C61.6131 384 108.78 384 193.625 384H193.626Z" fill="#FFA800"/>
<path d="M245.472 129.792C250.228 129.792 253.201 134.007 253.626 141.356C254.248 151.937 256.162 195.931 257.656 230.975C257.908 236.871 262.733 241.49 268.641 241.49H278.766C281.794 241.49 284.613 240.286 286.707 238.101C288.801 235.917 289.882 233.05 289.753 230.026C288.238 194.665 286.301 150.253 285.667 139.478C284.221 114.879 267.693 97.6992 245.472 97.6992C223.251 97.6992 206.721 114.879 205.277 139.478C204.32 155.751 202.523 200.569 201.796 219.085L201.753 220.137C201.337 227.359 198.289 231.659 193.604 231.659C188.919 231.659 185.87 227.359 185.454 220.157L185.439 219.75C185.036 209.457 182.973 157.216 181.932 139.478C180.486 114.879 163.957 97.6992 141.737 97.6992C119.516 97.6992 102.986 114.879 101.54 139.478C100.636 154.852 97.088 238.422 95.6022 273.639C95.464 276.973 96.6577 280.134 98.9622 282.539C101.275 284.95 104.395 286.279 107.747 286.279H115.56C122.095 286.279 127.43 281.178 127.704 274.665C128.85 247.341 132.662 156.976 133.583 141.355C134.005 134.008 136.976 129.793 141.737 129.793C146.415 129.793 149.462 134.091 149.887 141.289L149.902 141.683C150.305 151.989 152.367 204.299 153.407 221.973C154.853 246.573 171.384 263.753 193.604 263.753C215.825 263.753 232.354 246.573 233.801 221.973C234.841 204.294 236.904 151.984 237.306 141.678L237.32 141.315C237.743 134.091 240.79 129.793 245.472 129.793L245.472 129.792Z" fill="black"/>
<path d="M291.218 264.436C290.965 258.523 286.139 253.89 280.229 253.89H270.099C267.077 253.89 264.26 255.093 262.166 257.276C260.069 259.463 258.986 262.333 259.112 265.357L259.504 274.663C259.777 281.177 265.11 286.279 271.647 286.279H278.981C282.266 286.279 285.282 285.213 287.475 283.276C290.295 280.79 291.76 277.366 291.604 273.639L291.217 264.436H291.218Z" fill="black"/>
</svg>
