<svg width="76" height="74" viewBox="0 0 76 74" fill="none" xmlns="http://www.w3.org/2000/svg">
<g id="Frame" clip-path="url(#clip0_2195_6029)">
<path id="Vector" d="M37.9072 73.9977C54.2619 73.9977 63.3536 73.9977 69.2918 68.0596C75.2299 62.1214 75.2299 53.2888 75.2299 36.9342C75.2299 20.5796 75.2299 11.8767 69.2918 5.93846C63.3536 0.000244141 54.2618 0.000244141 37.9072 0.000244141C21.5526 0.000244141 12.4608 0.000244141 6.52263 5.93841C0.584473 11.8766 0.584473 20.5796 0.584473 36.9342C0.584473 53.2889 0.584473 62.1214 6.52263 68.0596C12.4608 73.9977 21.5526 73.9977 37.9072 73.9977H37.9072Z" fill="#FFA800"/>
<g id="Group">
<path id="Vector_2" d="M48.3006 24.3965C49.2616 24.3965 49.8623 25.2482 49.9482 26.733C50.0738 28.8709 50.4606 37.7602 50.7625 44.841C50.8135 46.0323 51.7884 46.9657 52.9821 46.9657H55.0279C55.6398 46.9657 56.2094 46.7224 56.6325 46.2809C57.0556 45.8397 57.2741 45.2602 57.2479 44.6494C56.9417 37.5044 56.5505 28.5306 56.4224 26.3536C56.1302 21.3831 52.7905 17.9119 48.3007 17.9119C43.8109 17.9119 40.4708 21.3832 40.179 26.3536C39.9856 29.6417 39.6226 38.6974 39.4757 42.4385L39.467 42.6511C39.3828 44.1105 38.7671 44.9793 37.8205 44.9793C36.8738 44.9793 36.2578 44.1105 36.1737 42.6553L36.1705 42.5729C36.0892 40.4933 35.6725 29.9377 35.462 26.3536C35.1698 21.3831 31.8301 17.9119 27.3403 17.9119C22.8505 17.9119 19.5104 21.3832 19.2182 26.3536C19.0357 29.4598 18.3188 46.3458 18.0185 53.4616C17.9906 54.1352 18.2318 54.774 18.6974 55.2599C19.1648 55.7471 19.7952 56.0156 20.4724 56.0156H22.0511C23.3716 56.0156 24.4495 54.9848 24.505 53.6689C24.7364 48.148 25.5067 29.8892 25.6928 26.7327C25.778 25.2482 26.3783 24.3965 27.3403 24.3965C28.2855 24.3965 28.9012 25.265 28.9871 26.7195L28.9902 26.7991C29.0716 28.8815 29.4883 39.4511 29.6984 43.0222C29.9906 47.9927 33.3307 51.464 37.8205 51.464C42.3103 51.464 45.65 47.9927 45.9425 43.0222C46.1526 39.4501 46.5694 28.8805 46.6507 26.7981L46.6535 26.7248C46.739 25.265 47.3547 24.3966 48.3007 24.3966L48.3006 24.3965Z" fill="black"/>
<path id="Vector_3" d="M57.5438 51.6021C57.4928 50.4073 56.5176 49.4712 55.3235 49.4712H53.2766C52.6661 49.4712 52.0969 49.7141 51.6738 50.1553C51.25 50.5972 51.0312 51.177 51.0567 51.7882L51.1359 53.6685C51.1911 54.9847 52.2686 56.0155 53.5894 56.0155H55.0714C55.735 56.0155 56.3444 55.8001 56.7877 55.4088C57.3573 54.9065 57.6533 54.2147 57.6219 53.4615L57.5437 51.6021H57.5438Z" fill="black"/>
</g>
</g>
<defs>
<clipPath id="clip0_2195_6029">
<rect width="74.6455" height="73.9975" fill="white" transform="translate(0.584473 0.000244141)"/>
</clipPath>
</defs>
</svg>
