<svg width="1749" height="446" viewBox="0 0 1749 446" fill="none" xmlns="http://www.w3.org/2000/svg">
<path d="M540.19 4.6321C513.548 4.6321 492.693 24.2961 492.693 50.33C492.693 76.3638 513.548 96.0285 540.19 96.0285C567.413 96.0285 588.266 76.3602 588.266 50.33C588.266 24.2997 567.413 4.6321 540.19 4.6321ZM220.683 283.452L123.952 26.0347H0V439.639H83.9852V149.245L199.252 439.639H229.95L344.634 149.245V439.639H437.89V26.0347H316.252L220.683 283.452ZM643.069 439.639H726.478V0.000244141H643.069V439.639ZM498.777 439.639H582.183V137.101H498.777V439.639ZM919.637 130.158C831.594 130.158 763.828 192.052 763.828 287.502V292.129C763.828 388.735 830.436 446 921.954 446C1004.78 446 1056.91 409.561 1066.76 344.192H987.407C982.194 369.645 963.08 386.421 924.271 386.421C878.512 386.421 851.292 357.495 848.971 307.17H1067.34V284.033C1067.34 175.86 997.832 130.158 919.637 130.158ZM850.129 255.687C856.504 212.882 881.987 188.002 919.637 188.002C959.603 188.002 982.773 209.989 985.669 255.687H850.129ZM1661.63 368.75C1692.86 331.869 1710.41 282.809 1710.41 226.764V222.139C1710.41 97.7647 1621.79 13.8838 1497.26 13.8838C1374.46 13.8838 1284.1 101.236 1284.1 224.449V229.082C1284.1 349.977 1366.93 439.639 1496.68 439.639C1496.87 439.639 1497.06 439.627 1497.26 439.627V439.639H1749V365.165L1661.63 368.749L1661.63 368.75ZM1612.52 227.921C1612.52 311.219 1568.5 365.02 1498.41 365.02C1430.64 365.02 1381.99 312.954 1381.99 228.499V223.87C1381.99 140.569 1425.43 87.9284 1497.26 87.9284C1569.66 87.9284 1612.52 142.882 1612.52 223.296V227.921ZM1159.44 439.639H1253.85V26.0347H1159.44V439.639Z" fill="black"/>
</svg>
