<svg width="24" height="24" viewBox="0 0 24 24" fill="none" xmlns="http://www.w3.org/2000/svg">
<rect x="2.18197" y="5.03692" width="19.6395" height="13.9262" rx="1.24984" fill="white" stroke="#F5F5F5" stroke-width="0.357098"/>
<mask id="mask0_1785_5868" style="mask-type:luminance" maskUnits="userSpaceOnUse" x="2" y="4" width="20" height="16">
<rect x="2.18197" y="5.03692" width="19.6395" height="13.9262" rx="1.24984" fill="white" stroke="white" stroke-width="0.357098"/>
</mask>
<g mask="url(#mask0_1785_5868)">
<rect x="16.2867" y="4.85837" width="5.71331" height="14.2833" fill="#DC251C"/>
<path fill-rule="evenodd" clip-rule="evenodd" d="M2.00342 19.1416H7.71673V4.85837H2.00342V19.1416Z" fill="#DC251C"/>
<path fill-rule="evenodd" clip-rule="evenodd" d="M13.5094 11.4444C13.3429 11.611 13.0614 11.4604 13.1076 11.2294L13.4295 9.61986L12.4773 10.096L12.0012 8.66764L11.5251 10.096L10.5729 9.61986L10.8948 11.2294C10.941 11.4604 10.6596 11.611 10.493 11.4444L10.2651 11.2165C10.1722 11.1236 10.0214 11.1236 9.92845 11.2165L9.62068 11.5243L8.66846 11.0482L9.14457 12.0004L8.83679 12.3082C8.74382 12.4011 8.74382 12.5519 8.83679 12.6449L10.0968 13.9048H11.5251L11.7632 15.3332H12.2393L12.4773 13.9048H13.9057L15.1656 12.6449C15.2586 12.5519 15.2586 12.4011 15.1656 12.3082L14.8579 12.0004L15.334 11.0482L14.3818 11.5243L14.074 11.2165C13.981 11.1236 13.8303 11.1236 13.7373 11.2165L13.5094 11.4444Z" fill="#DC251C"/>
</g>
</svg>
