<svg width="24" height="24" viewBox="0 0 24 24" fill="none" xmlns="http://www.w3.org/2000/svg">
<g clip-path="url(#clip0_1785_5858)">
<path d="M1.99658 4.49432H22.0119V19.5058H1.99658V4.49432Z" fill="#41479B"/>
<path d="M22.0119 17.5512L14.6104 12.0001L22.0119 6.44894V4.49432H19.4058L12.0042 10.0455L4.60274 4.49432H1.99658V6.44894L9.39809 12.0001L1.99658 17.5512V19.5058H4.60278L12.0042 13.9547L19.4057 19.5058H22.0119V17.5512Z" fill="white"/>
<path fill-rule="evenodd" clip-rule="evenodd" d="M1.9978 4.49432L1.99759 4.49461V5.27606L10.963 12.0001L1.99759 18.7242V19.5056L1.99775 19.5058H3.04032L12.0054 12.782L20.9706 19.5058H22.0129V18.7239L13.0479 12.0001L22.0129 5.27635V4.49432H20.9707L12.0054 11.2183L3.04021 4.49432H1.9978Z" fill="#DC251C"/>
<path fill-rule="evenodd" clip-rule="evenodd" d="M9.50233 9.49815V4.49432H14.5062V9.49815H22.0119V14.502H14.5062V19.5058H9.50233V14.502H1.99658V9.49815H9.50233Z" fill="white"/>
<path fill-rule="evenodd" clip-rule="evenodd" d="M10.7533 10.7491V4.49432H13.2552V10.7491H22.0119V13.251H13.2552V19.5058H10.7533V13.251H1.99658V10.7491H10.7533Z" fill="#DC251C"/>
</g>
<defs>
<clipPath id="clip0_1785_5858">
<rect x="1.99609" y="4.49426" width="20.0153" height="15.0115" rx="2.50189" fill="white"/>
</clipPath>
</defs>
</svg>
