<svg width="100%" height="100%" viewBox="0 0 22 16" fill="none" xmlns="http://www.w3.org/2000/svg">
<rect width="21.3333" height="14.6667" fill="#EEF3F8"/>
<rect width="12" height="9.33333" fill="#41479B"/>
<rect x="12" width="9.33333" height="1.33333" fill="#DC251C"/>
<rect x="12" y="2.6665" width="9.33333" height="1.33333" fill="#DC251C"/>
<rect x="12" y="5.3335" width="9.33333" height="1.33333" fill="#DC251C"/>
<rect x="12" y="8" width="9.33333" height="1.33333" fill="#DC251C"/>
<rect y="10.6665" width="21.3333" height="1.33333" fill="#DC251C"/>
<rect y="13.3335" width="21.3333" height="1.33333" fill="#DC251C"/>
<rect x="1.33325" y="1.3335" width="1.33333" height="1.33333" fill="#C5D0EC"/>
<rect x="4" y="1.3335" width="1.33333" height="1.33333" fill="#C5D0EC"/>
<rect x="6.6665" y="1.3335" width="1.33333" height="1.33333" fill="#C5D0EC"/>
<rect x="9.33325" y="1.3335" width="1.33333" height="1.33333" fill="#C5D0EC"/>
<rect x="1.33325" y="4" width="1.33333" height="1.33333" fill="#C5D0EC"/>
<rect x="4" y="4" width="1.33333" height="1.33333" fill="#C5D0EC"/>
<rect x="6.6665" y="4" width="1.33333" height="1.33333" fill="#C5D0EC"/>
<rect x="2.6665" y="5.3335" width="1.33333" height="1.33333" fill="#C5D0EC"/>
<rect x="5.33325" y="5.3335" width="1.33333" height="1.33333" fill="#C5D0EC"/>
<rect x="8" y="5.3335" width="1.33333" height="1.33333" fill="#C5D0EC"/>
<rect x="2.6665" y="2.66699" width="1.33333" height="1.33333" fill="#C5D0EC"/>
<rect x="5.33325" y="2.66699" width="1.33333" height="1.33333" fill="#C5D0EC"/>
<rect x="8" y="2.66699" width="1.33333" height="1.33333" fill="#C5D0EC"/>
<rect x="9.33325" y="4" width="1.33333" height="1.33333" fill="#C5D0EC"/>
<rect x="1.33325" y="6.66699" width="1.33333" height="1.33333" fill="#C5D0EC"/>
<rect x="4" y="6.66699" width="1.33333" height="1.33333" fill="#C5D0EC"/>
<rect x="6.6665" y="6.66699" width="1.33333" height="1.33333" fill="#C5D0EC"/>
<rect x="9.33325" y="6.66699" width="1.33333" height="1.33333" fill="#C5D0EC"/>
</svg>
